<svg width="122" height="20" viewBox="0 0 122 20" fill="none" xmlns="http://www.w3.org/2000/svg">
<path d="M4.89162 9.74755C5.72874 9.64964 6.55041 10.2271 6.78225 11.0366C6.87959 11.3771 6.85989 11.7034 6.8594 12.0522L6.85744 13.0415L7.84182 13.0405C8.52396 13.0402 9.03877 13.0271 9.57815 13.563C9.92062 13.9041 10.1144 14.3701 10.1153 14.8569C10.1183 15.3472 9.92596 15.8186 9.58205 16.1636C9.03574 16.7118 8.50825 16.6917 7.81643 16.6909L6.85842 16.6899L6.8594 17.6714C6.86023 18.3216 6.8872 18.7864 6.44045 19.3364C6.12543 19.7242 5.68576 19.9398 5.19436 19.9849C4.42113 20.1087 3.53332 19.4554 3.34084 18.7095C3.24293 18.33 3.25422 18.0364 3.25491 17.6518V16.6899L2.29299 16.6909C1.61048 16.6922 1.09021 16.71 0.547875 16.1772C0.200982 15.8351 0.00339029 15.366 2.31155e-05 14.8755C-0.00240705 14.3888 0.186867 13.9209 0.525414 13.5757C1.07355 13.0216 1.59938 13.0399 2.29495 13.0405L3.25588 13.0415L3.25491 12.1011C3.25464 11.4684 3.22467 10.9871 3.63577 10.4438C3.95339 10.0242 4.38131 9.81465 4.89162 9.74755Z" fill="#475669"/>
<path d="M16.292 10.2681C18.7894 10.1493 20.9082 12.1149 21.0235 14.6567C21.1384 17.1983 19.2063 19.3536 16.709 19.4692C14.2137 19.5846 12.0986 17.6199 11.9834 15.0806C11.8684 12.5412 13.7972 10.387 16.292 10.2681Z" fill="#475669"/>
<path d="M32.2393 5.00048C32.3593 5.00048 32.4199 5.05961 32.4199 5.17821V7.19189C32.4199 7.31044 32.3592 7.36962 32.2393 7.36962H29.0293C28.9622 7.36964 28.9044 7.39348 28.8565 7.44091C28.8086 7.48828 28.7842 7.54334 28.7842 7.60497V11.8677C28.7843 11.9337 28.8088 11.9903 28.8565 12.0376C28.9044 12.0849 28.9622 12.1089 29.0293 12.1089H30.3106V10.6284L29.5547 10.6216C29.4348 10.6215 29.375 10.5624 29.375 10.4438V8.79247C29.3752 8.67424 29.435 8.61483 29.5547 8.61474H32.5567C32.6762 8.61488 32.7362 8.67429 32.7364 8.79247V12.6567C32.7364 12.7705 32.6957 12.866 32.6143 12.9419L31.1748 14.3647C31.0981 14.4453 31.0017 14.4857 30.8867 14.4858H27.9356C27.8204 14.4858 27.7242 14.4454 27.6475 14.3647L26.208 12.9419C26.1264 12.866 26.085 12.7706 26.085 12.6567V6.82177C26.085 6.71266 26.1265 6.61726 26.208 6.53661L27.6475 5.11376C27.7242 5.03793 27.8205 5.00048 27.9356 5.00048H32.2393Z" fill="#475669"/>
<path fill-rule="evenodd" clip-rule="evenodd" d="M38.1729 5.00048C38.2832 5.00048 38.3794 5.03801 38.461 5.11376L39.9004 6.53661C39.9819 6.61726 40.0235 6.71266 40.0235 6.82177V9.78954C40.0234 9.90328 39.9819 9.99785 39.9004 10.0737L38.461 11.4976C38.3794 11.578 38.2831 11.6186 38.1729 11.6186H36.4746V14.3081C36.4746 14.4266 36.4148 14.4857 36.2949 14.4858H33.9551C33.8354 14.4857 33.7754 14.4266 33.7754 14.3081V5.17821C33.7754 5.05976 33.8354 5.00058 33.9551 5.00048H38.1729ZM36.835 7.41942C36.5422 7.41942 36.3277 7.4879 36.1934 7.62548C36.059 7.76307 35.9922 7.98913 35.9922 8.30224C35.9922 8.61492 36.0594 8.84258 36.1934 8.98485C36.3277 9.12244 36.5422 9.19189 36.835 9.19189C37.1322 9.19183 37.3482 9.12238 37.4824 8.98485C37.6166 8.84259 37.6836 8.61505 37.6836 8.30224C37.6836 7.98907 37.6169 7.763 37.4824 7.62548C37.3481 7.48807 37.1321 7.41948 36.835 7.41942Z" fill="#475669"/>
<path d="M43.4229 5.00048C43.5425 5.00063 43.6026 5.0598 43.6026 5.17821V8.66454H44.711V5.17821C44.711 5.0597 44.7708 5.00053 44.8906 5.00048H47.2227C47.3426 5.00049 47.4024 5.05966 47.4024 5.17821V8.57958C47.4024 8.61745 47.4003 8.6529 47.3955 8.68603C47.3907 8.71916 47.3693 8.75468 47.3311 8.79247L46.3731 9.73974V9.98876L47.3096 10.9136C47.3478 10.9466 47.3692 10.98 47.374 11.0132C47.3789 11.0463 47.3809 11.0847 47.3809 11.1274V14.3081C47.3809 14.4267 47.3212 14.4858 47.2012 14.4858H44.8623C44.7424 14.4858 44.6817 14.4267 44.6817 14.3081V11.0347H43.6309V14.3081C43.6309 14.4267 43.5711 14.4858 43.4512 14.4858H41.1045C40.9847 14.4857 40.9248 14.4266 40.9248 14.3081V11.1274C40.9248 11.0847 40.9269 11.0463 40.9317 11.0132C40.9413 10.98 40.9635 10.9467 40.9971 10.9136L41.9326 9.98876V9.73974L40.9746 8.79247C40.9414 8.75473 40.9197 8.71912 40.9102 8.68603C40.9054 8.65292 40.9033 8.61742 40.9033 8.57958V5.17821C40.9033 5.0597 40.9632 5.00052 41.083 5.00048H43.4229Z" fill="#475669"/>
<path d="M55.667 5.00048C55.7869 5.00048 55.8467 5.05966 55.8467 5.17821V14.3081C55.8467 14.4267 55.7869 14.4858 55.667 14.4858H53.3281C53.2083 14.4858 53.1475 14.4266 53.1475 14.3081V5.17821C53.1476 5.0597 53.2083 5.00052 53.3281 5.00048H55.667Z" fill="#475669"/>
<path d="M61.5274 5.00048C61.6374 5.00056 61.7331 5.03811 61.8145 5.11376L63.2539 6.53661C63.3307 6.61726 63.3692 6.71266 63.3692 6.82177V14.3081C63.3692 14.4267 63.3095 14.4858 63.1895 14.4858H60.8574C60.7376 14.4857 60.6778 14.4267 60.6778 14.3081V7.36962H59.7129V14.3081C59.7129 14.4267 59.6532 14.4858 59.5332 14.4858H57.1934C57.0737 14.4856 57.0137 14.4265 57.0137 14.3081V5.17821C57.0138 5.05983 57.0738 5.00065 57.1934 5.00048H61.5274Z" fill="#475669"/>
<path d="M69.5166 5.00048C69.6364 5.0006 69.6963 5.05978 69.6963 5.17821V7.19189C69.6963 7.31032 69.6364 7.36951 69.5166 7.36962H68.4649V14.3081C68.4649 14.4267 68.4051 14.4858 68.2852 14.4858H65.9463C65.8263 14.4858 65.7656 14.4267 65.7656 14.3081V7.36962H64.7149C64.5951 7.36952 64.5352 7.31033 64.5352 7.19189V5.17821C64.5352 5.05976 64.5951 5.00058 64.7149 5.00048H69.5166Z" fill="#475669"/>
<path d="M76.0586 5.00048C76.1785 5.00054 76.2383 5.05971 76.2383 5.17821V7.19189C76.2383 7.31038 76.1785 7.36956 76.0586 7.36962H73.5606V8.67235H75.9356C76.0556 8.67235 76.1153 8.73147 76.1153 8.85009V10.6294C76.1152 10.7478 76.0555 10.8071 75.9356 10.8071H73.5606V12.1089H76.0586C76.1785 12.1089 76.2383 12.169 76.2383 12.2876V14.3081C76.2383 14.4267 76.1785 14.4858 76.0586 14.4858H71.041C70.9212 14.4857 70.8614 14.4266 70.8614 14.3081V5.17821C70.8614 5.05975 70.9212 5.00058 71.041 5.00048H76.0586Z" fill="#475669"/>
<path fill-rule="evenodd" clip-rule="evenodd" d="M81.7324 5.00048C81.8515 5.00054 81.9472 5.03083 82.0196 5.09228L83.6748 6.71532C83.7279 6.76271 83.7589 6.80323 83.7686 6.83642C83.783 6.86963 83.7901 6.92396 83.7901 6.9995V8.9497C83.7901 9.01123 83.7591 9.07274 83.6973 9.13427L82.8047 10.0102L82.3867 10.3657L83.0059 11.2124L83.8623 12.9272C83.8857 12.9698 83.9034 13.0126 83.9131 13.0552C83.9228 13.0931 83.9278 13.1438 83.9278 13.2056V14.3081C83.9278 14.4267 83.8671 14.4858 83.7471 14.4858H81.6602C81.5547 14.4858 81.483 14.4381 81.4444 14.3433L80.3711 11.4263H80.0401V14.3081C80.0401 14.4267 79.9804 14.4858 79.8604 14.4858H77.5781C77.4583 14.4857 77.3994 14.4266 77.3994 14.3081V5.17821C77.3994 5.05974 77.4583 5.00056 77.5781 5.00048H81.7324ZM80.5947 7.24169C80.3018 7.24172 80.0879 7.31244 79.9541 7.45458C79.8196 7.59693 79.752 7.8302 79.752 8.15282C79.752 8.47528 79.8197 8.70779 79.9541 8.85009C80.0879 8.9924 80.3018 9.06392 80.5947 9.06396C80.8918 9.06389 81.1077 8.99228 81.2422 8.85009C81.3766 8.70779 81.4443 8.47521 81.4444 8.15282C81.4444 7.8302 81.3767 7.59693 81.2422 7.45458C81.1077 7.31256 80.8917 7.24169 80.5947 7.24169Z" fill="#475669"/>
<path fill-rule="evenodd" clip-rule="evenodd" d="M89.2705 5.00048C89.3758 5.00059 89.4525 5.03591 89.5 5.10692L91.2139 7.49755C91.2615 7.56389 91.2852 7.63555 91.2852 7.71142V14.3081C91.2852 14.4267 91.2248 14.4858 91.1055 14.4858H88.7656C88.6466 14.4857 88.5869 14.4265 88.5869 14.3081V11.4614H87.4854V14.3081C87.4854 14.4266 87.4254 14.4857 87.3057 14.4858H84.9658C84.8459 14.4857 84.7862 14.4266 84.7862 14.3081V7.71142C84.7862 7.64031 84.8099 7.56865 84.8574 7.49755L86.5567 5.10692C86.6098 5.03581 86.6864 5.0005 86.7871 5.00048H89.2705ZM88.0322 7.38427C87.711 7.38427 87.4775 7.46427 87.334 7.62548C87.1947 7.78672 87.125 8.05333 87.125 8.42333C87.1251 8.79314 87.1948 9.05896 87.334 9.22021C87.4775 9.38152 87.7109 9.46142 88.0322 9.46142C88.3584 9.4614 88.5919 9.3815 88.7305 9.22021C88.8745 9.05896 88.9463 8.79308 88.9463 8.42333C88.9463 8.05333 88.8746 7.78672 88.7305 7.62548C88.5919 7.46424 88.3584 7.38428 88.0322 7.38427Z" fill="#475669"/>
<path d="M96.9688 5.00048C97.0888 5.0005 97.1485 5.05968 97.1485 5.17821V6.72899C97.1485 6.76693 97.1435 6.80531 97.1338 6.84325C97.1296 6.88111 97.1059 6.91658 97.0625 6.9497L95.9112 7.8745L95.0899 8.81396V10.729L95.9688 11.7173L97.0625 12.5864C97.1011 12.6148 97.1249 12.6481 97.1338 12.686C97.1434 12.7191 97.1485 12.7547 97.1485 12.7925V14.3081C97.1485 14.4267 97.0888 14.4858 96.9688 14.4858H95.0684C94.9534 14.4858 94.8577 14.4546 94.7813 14.3931L93.7949 13.4614L92.5205 12.0308C92.4683 11.9693 92.4345 11.9266 92.4199 11.9028C92.4103 11.8791 92.4053 11.8312 92.4053 11.7602V7.71825C92.4053 7.64249 92.4133 7.59254 92.4278 7.56884C92.4423 7.54506 92.4732 7.50433 92.5205 7.44774L93.6153 6.20263L94.7813 5.09228C94.8288 5.0497 94.8723 5.02363 94.9102 5.01415C94.9487 5.00469 95.001 5.0005 95.0684 5.00048H96.9688Z" fill="#475669"/>
<path d="M103.129 5.00048C103.249 5.00049 103.31 5.05966 103.31 5.17821V7.19189C103.31 7.31044 103.249 7.36962 103.129 7.36962H102.079V14.3081C102.079 14.4266 102.019 14.4856 101.899 14.4858H99.5596C99.4397 14.4858 99.3799 14.4267 99.3799 14.3081V7.36962H98.3291C98.2091 7.36962 98.1485 7.31044 98.1485 7.19189V5.17821C98.1485 5.05966 98.2091 5.00048 98.3291 5.00048H103.129Z" fill="#475669"/>
<path d="M106.994 5.00048C107.114 5.00052 107.174 5.0597 107.174 5.17821V14.3081C107.174 14.4266 107.114 14.4858 106.994 14.4858H104.655C104.535 14.4858 104.475 14.4267 104.475 14.3081V5.17821C104.475 5.05966 104.535 5.00048 104.655 5.00048H106.994Z" fill="#475669"/>
<path d="M110.86 5.00048C110.98 5.00052 111.04 5.0597 111.04 5.17821V11.8101H112.148V5.17821C112.148 5.05966 112.209 5.00048 112.329 5.00048H114.66C114.78 5.00048 114.841 5.05966 114.841 5.17821V12.6577C114.841 12.7713 114.802 12.8661 114.726 12.9419L113.286 14.3647C113.205 14.4454 113.108 14.4858 112.998 14.4858H110.19C110.075 14.4857 109.98 14.4453 109.903 14.3647L108.463 12.9419C108.382 12.8661 108.341 12.7713 108.341 12.6577V5.17821C108.341 5.05966 108.402 5.00048 108.522 5.00048H110.86Z" fill="#475669"/>
<path d="M121.2 5.00048C121.32 5.00066 121.38 5.05983 121.38 5.17821V7.19189C121.38 7.31029 121.32 7.36947 121.2 7.36962H118.702V8.67235H121.078C121.198 8.67257 121.257 8.73162 121.257 8.85009V10.6294C121.257 10.7476 121.198 10.807 121.078 10.8071H118.702V12.1089H121.2C121.32 12.109 121.38 12.1692 121.38 12.2876V14.3081C121.38 14.4265 121.32 14.4856 121.2 14.4858H116.184C116.064 14.4858 116.003 14.4267 116.003 14.3081V5.17821C116.003 5.05966 116.064 5.00048 116.184 5.00048H121.2Z" fill="#475669"/>
<path d="M5.61916 0.798331L6.55862 0.797354C6.82569 0.79697 7.14875 0.786175 7.40823 0.839346C7.75515 0.91027 8.07823 1.07258 8.34573 1.30907C8.75743 1.67437 9.00855 2.19289 9.04202 2.74853C9.05697 2.96803 9.04739 3.28434 9.0469 3.51024V6.2163C9.04759 6.5399 9.06492 6.96045 9.00491 7.27001C8.93539 7.63091 8.77288 7.967 8.53323 8.24169C8.17061 8.65811 7.65857 8.90788 7.1133 8.93505C6.27472 8.96049 5.34916 8.93917 4.50393 8.93993L3.55276 8.94091C3.2838 8.94105 2.95332 8.9515 2.69436 8.89696C2.35109 8.82503 2.03162 8.66331 1.7676 8.42821C1.35323 8.06073 1.10265 7.53736 1.07327 6.97802C1.05879 6.73457 1.06801 6.40946 1.06838 6.16161L1.06936 4.71728L1.06838 3.42626C1.06806 3.15614 1.05519 2.75403 1.10256 2.49755C1.17022 2.1275 1.33492 1.78266 1.57912 1.50048C1.97668 1.04399 2.47032 0.835094 3.05862 0.800284C3.87734 0.77768 4.79263 0.79889 5.61916 0.798331Z" fill="#475669"/>
<path d="M15.8858 0.000479297C16.4099 -0.0146265 16.6359 0.329455 16.8584 0.731925C16.9325 0.866146 17.0248 1.00954 17.1045 1.14208L19.5694 5.23681C19.8429 5.69139 20.127 6.15173 20.3897 6.61278C20.4667 6.74788 20.4961 6.85363 20.4961 7.00927C20.4961 7.24754 20.3991 7.47595 20.2276 7.64306C20.1047 7.76087 19.9494 7.8402 19.7813 7.87157C19.5928 7.90599 18.8598 7.8921 18.6172 7.89208L13.502 7.8911C13.0676 7.89117 12.6059 7.90716 12.1817 7.87157C11.6517 7.82672 11.2783 7.13597 11.5225 6.67626C11.7471 6.25382 12.0062 5.82857 12.2471 5.41552L14.7373 1.14599C14.8195 1.00547 14.9118 0.853564 14.9903 0.712393C15.2247 0.291355 15.3688 0.0537864 15.8858 0.000479297Z" fill="#475669"/>
</svg>
