<svg preserveAspectRatio="none" width="100%" height="100%" overflow="visible" style="display: block;" viewBox="0 0 32 32" fill="none" xmlns="http://www.w3.org/2000/svg">
<path id="Logo" d="M16 0L16.1675 12.8044L17.6725 0.0876493L16.5006 12.8394L19.3266 0.349638L16.8282 12.909L20.9443 0.783095L17.1468 13.0125L22.5078 1.38327L17.4528 13.1488L24 2.14359L17.7428 13.3163L25.4046 3.05573L18.0138 13.5131L26.7061 4.10968L18.2627 13.7373L27.8903 5.29391L18.4869 13.9862L28.9443 6.59544L18.6837 14.2572L29.8564 8L18.8512 14.5472L30.6167 9.49221L18.9875 14.8532L31.2169 11.0557L19.091 15.1718L31.6504 12.6734L19.1606 15.4994L31.9123 14.3275L19.1956 15.8325L32 16L19.1956 16.1675L31.9123 17.6725L19.1606 16.5006L31.6504 19.3266L19.091 16.8282L31.2169 20.9443L18.9875 17.1468L30.6167 22.5078L18.8512 17.4528L29.8564 24L18.6837 17.7428L28.9443 25.4046L18.4869 18.0138L27.8903 26.7061L18.2627 18.2627L26.7061 27.8903L18.0138 18.4869L25.4046 28.9443L17.7428 18.6837L24 29.8564L17.4528 18.8512L22.5078 30.6167L17.1468 18.9875L20.9443 31.2169L16.8282 19.091L19.3266 31.6504L16.5006 19.1606L17.6725 31.9123L16.1675 19.1956L16 32L15.8325 19.1956L14.3275 31.9123L15.4994 19.1606L12.6734 31.6504L15.1718 19.091L11.0557 31.2169L14.8532 18.9875L9.49221 30.6167L14.5472 18.8512L8 29.8564L14.2572 18.6837L6.59544 28.9443L13.9862 18.4869L5.29391 27.8903L13.7373 18.2627L4.10968 26.7061L13.5131 18.0138L3.05573 25.4046L13.3163 17.7428L2.14359 24L13.1488 17.4528L1.38327 22.5078L13.0125 17.1468L0.783095 20.9443L12.909 16.8282L0.349638 19.3266L12.8394 16.5006L0.0876493 17.6725L12.8044 16.1675L0 16L12.8044 15.8325L0.0876493 14.3275L12.8394 15.4994L0.349638 12.6734L12.909 15.1718L0.783095 11.0557L13.0125 14.8532L1.38327 9.49221L13.1488 14.5472L2.14359 8L13.3163 14.2572L3.05573 6.59544L13.5131 13.9862L4.10968 5.29391L13.7373 13.7373L5.29391 4.10968L13.9862 13.5131L6.59544 3.05573L14.2572 13.3163L8 2.14359L14.5472 13.1488L9.49221 1.38327L14.8532 13.0125L11.0557 0.783095L15.1718 12.909L12.6734 0.349638L15.4994 12.8394L14.3275 0.0876493L15.8325 12.8044L16 0Z" fill="var(--fill-0, #39FF3E)"/>
</svg>
