<svg width="71" height="24" viewBox="0 0 71 24" fill="none" xmlns="http://www.w3.org/2000/svg">
<path d="M2.55273 0.0146484C2.6888 0.0146484 2.8198 0.0679677 2.91602 0.162109C3.01221 0.256247 3.06641 0.384463 3.06641 0.517578V23.4951C3.0648 23.6272 3.01011 23.7538 2.91406 23.8467C2.81803 23.9396 2.68774 23.9912 2.55273 23.9912C2.41843 23.9911 2.28931 23.9386 2.19434 23.8457C2.09944 23.7527 2.0459 23.6265 2.0459 23.4951V0.493164C2.0451 0.4276 2.05795 0.362567 2.08301 0.301758C2.10811 0.240923 2.14527 0.185349 2.19238 0.138672C2.2395 0.0920154 2.29557 0.0545955 2.35742 0.0292969C2.38827 0.0166904 2.42051 0.0073947 2.45312 0.000976562L2.55273 0.0146484Z" fill="#475669"/>
<path d="M14.8232 0.015625C14.8902 0.0156203 14.9567 0.028478 15.0186 0.0537109C15.0805 0.0790092 15.1374 0.115419 15.1846 0.162109C15.2317 0.208767 15.2689 0.264381 15.2939 0.325195C15.3191 0.386066 15.3308 0.451939 15.3301 0.517578V23.4951C15.3163 23.6181 15.2572 23.7319 15.1631 23.8145C15.069 23.897 14.9467 23.9424 14.8203 23.9424C14.694 23.9423 14.5716 23.897 14.4775 23.8145C14.3836 23.7319 14.3243 23.618 14.3105 23.4951V0.493164C14.3097 0.427044 14.3222 0.361049 14.3477 0.299805C14.3732 0.238673 14.4113 0.183412 14.459 0.136719C14.5068 0.0899655 14.5634 0.0522868 14.626 0.0273438C14.6572 0.0149205 14.6897 0.0061284 14.7227 0L14.8232 0.015625Z" fill="#475669"/>
<path d="M0.512695 1.0127C0.647692 1.01427 0.777174 1.06815 0.87207 1.16211C0.966968 1.25608 1.02052 1.38352 1.02051 1.51562V22.6201C1.01691 22.6551 1.00909 22.69 0.998047 22.7236C0.975987 22.7906 0.939625 22.8529 0.891602 22.9053C0.84365 22.9575 0.785218 22.9997 0.719727 23.0283C0.653901 23.0571 0.581855 23.0723 0.509766 23.0723C0.437776 23.0722 0.366516 23.057 0.300781 23.0283C0.235037 22.9996 0.176013 22.9577 0.12793 22.9053C0.0798655 22.8528 0.04354 22.7907 0.0214844 22.7236C0.0104401 22.69 0.0036013 22.6551 0 22.6201V1.51562C0 1.38249 0.0541757 1.2543 0.150391 1.16016C0.246503 1.06614 0.376795 1.0128 0.512695 1.0127Z" fill="#475669"/>
<path d="M4.59863 1.0127C4.73421 1.01425 4.86409 1.0683 4.95996 1.16211C5.0558 1.25591 5.11072 1.383 5.1123 1.51562V22.5156C5.11217 22.6486 5.058 22.7761 4.96191 22.8701C4.8657 22.9643 4.7347 23.0176 4.59863 23.0176C4.46274 23.0175 4.33244 22.9641 4.23633 22.8701C4.14023 22.7761 4.08607 22.6486 4.08594 22.5156V1.51562C4.08752 1.38297 4.14241 1.25592 4.23828 1.16211C4.33406 1.06841 4.46321 1.01435 4.59863 1.0127Z" fill="#475669"/>
<path d="M12.7773 1.0127C12.9122 1.01427 13.0409 1.06833 13.1357 1.16211C13.2307 1.25608 13.2842 1.38352 13.2842 1.51562V22.5156C13.2849 22.5811 13.2722 22.6463 13.2471 22.707C13.222 22.7678 13.1848 22.8235 13.1377 22.8701C13.0906 22.9166 13.0344 22.9533 12.9727 22.9785C12.9108 23.0038 12.8444 23.0176 12.7773 23.0176C12.6414 23.0176 12.5112 22.9641 12.415 22.8701C12.3189 22.7761 12.2648 22.6486 12.2646 22.5156V1.51562C12.2662 1.38311 12.3203 1.25589 12.416 1.16211C12.5119 1.0683 12.6418 1.01425 12.7773 1.0127Z" fill="#475669"/>
<path d="M16.8633 1.0127C16.9988 1.01425 17.1287 1.0683 17.2246 1.16211C17.3203 1.25589 17.3744 1.38309 17.376 1.51562V22.5156C17.3758 22.6485 17.3225 22.7761 17.2266 22.8701C17.1303 22.9643 16.9993 23.0176 16.8633 23.0176C16.7962 23.0176 16.7299 23.0038 16.668 22.9785C16.6062 22.9533 16.55 22.9167 16.5029 22.8701C16.4559 22.8235 16.4186 22.7678 16.3936 22.707C16.3685 22.6463 16.3557 22.5811 16.3564 22.5156V1.51562C16.3564 1.38352 16.41 1.25608 16.5049 1.16211C16.5998 1.06832 16.7284 1.01427 16.8633 1.0127Z" fill="#475669"/>
<path d="M10.7314 8.01758C10.8673 8.01764 10.9976 8.07006 11.0938 8.16406C11.19 8.25821 11.2441 8.38639 11.2441 8.51953V19.5146C11.2441 19.6478 11.19 19.776 11.0938 19.8701C10.9976 19.9641 10.8673 20.0175 10.7314 20.0176C10.5954 20.0176 10.4644 19.9643 10.3682 19.8701C10.272 19.776 10.2178 19.6477 10.2178 19.5146V8.51953C10.2178 8.38644 10.272 8.2582 10.3682 8.16406C10.4644 8.06992 10.5954 8.01758 10.7314 8.01758Z" fill="#475669"/>
<path fill-rule="evenodd" clip-rule="evenodd" d="M37.5527 9.10156C38.7632 8.67383 40.0864 8.67382 41.2969 9.10156C41.7664 9.28016 42.1973 9.54449 42.5674 9.87988L42.7217 10.0098C43.126 10.4342 43.433 10.9404 43.6211 11.4932C43.8321 12.1257 43.9353 12.789 43.9268 13.4551C43.9379 14.13 43.831 14.802 43.6094 15.4404C43.411 15.9972 43.0931 16.5051 42.6787 16.9297C42.28 17.3433 41.7934 17.6642 41.2539 17.8682C40.6678 18.0873 40.0454 18.1956 39.4189 18.1885C38.8087 18.2286 38.1963 18.142 37.6221 17.9336C37.0478 17.725 36.5242 17.3988 36.085 16.9775C35.2447 16.0062 34.821 14.7486 34.9043 13.4727C34.8966 12.8059 35.0035 12.1426 35.2217 11.5117C35.412 10.9586 35.7217 10.4524 36.1279 10.0283C36.5305 9.62214 37.0161 9.30565 37.5527 9.10156ZM39.4307 10.6582C39.1384 10.6582 38.8493 10.7223 38.585 10.8457C38.3207 10.9691 38.0872 11.1489 37.9014 11.3721C37.5257 11.9981 37.3487 12.7215 37.3936 13.4482C37.346 14.1814 37.519 14.9123 37.8896 15.5488C38.0743 15.7739 38.3068 15.9564 38.5713 16.0811C38.8358 16.2057 39.1259 16.2695 39.4189 16.2695C39.7119 16.2695 40.0012 16.2057 40.2656 16.0811C40.464 15.9875 40.6449 15.8618 40.8008 15.71L40.96 15.543C41.3299 14.9081 41.5046 14.1799 41.4619 13.4482C41.5067 12.7223 41.3318 11.9995 40.96 11.3721C40.774 11.1489 40.5407 10.9691 40.2764 10.8457C40.012 10.7223 39.723 10.6582 39.4307 10.6582Z" fill="#475669"/>
<path fill-rule="evenodd" clip-rule="evenodd" d="M62.8291 8.78125C63.4204 8.76527 64.0109 8.84908 64.5732 9.0293C64.9544 9.15002 65.3038 9.34974 65.5996 9.61426L65.7539 9.7373C66.0419 10.0568 66.2512 10.4385 66.3652 10.8516C66.5005 11.3301 66.566 11.8253 66.5605 12.3223V17.9404H64.3037V16.8145C63.9656 17.2008 63.5649 17.5285 63.1172 17.7832C62.593 18.0523 62.0062 18.1813 61.416 18.1582C61.0315 18.161 60.6486 18.11 60.2783 18.0068C59.9369 17.9118 59.6193 17.7488 59.3428 17.5283C59.0679 17.3064 58.8475 17.0248 58.7002 16.7051C58.5301 16.3243 58.4488 15.9102 58.4619 15.4941C58.4375 14.9639 58.5809 14.4392 58.8721 13.9932C59.1474 13.6082 59.5175 13.2999 59.9482 13.0977C60.4199 12.8726 60.9229 12.7176 61.4404 12.6377C61.9968 12.5447 62.5596 12.4877 63.123 12.4678L64.2676 12.4131V11.9648C64.2937 11.7557 64.2655 11.5434 64.1865 11.3477C64.1075 11.1518 63.9791 10.9792 63.8145 10.8457C63.5003 10.6367 63.1285 10.5279 62.75 10.5361C61.802 10.5361 61.2636 10.8941 61.1289 11.6084L58.9385 11.4023C58.9832 10.9988 59.1161 10.6097 59.3271 10.2617C59.5382 9.91381 59.8235 9.6153 60.1621 9.38672C60.9764 8.94158 61.9003 8.73169 62.8291 8.78125ZM63.2275 14.0234C62.8153 14.0325 62.4047 14.0852 62.0039 14.1807C61.7508 14.2353 61.5099 14.336 61.2939 14.4775C61.1407 14.5772 61.025 14.7243 60.9639 14.8955C60.9034 15.0643 60.8736 15.2426 60.8779 15.4219C60.873 15.5532 60.8973 15.6842 60.9502 15.8047C61.0031 15.9252 61.0833 16.0325 61.1836 16.1182C61.4301 16.3002 61.7336 16.3899 62.04 16.3721C62.5751 16.3976 63.1036 16.2487 63.5449 15.9482C63.7815 15.7731 63.9714 15.5446 64.0996 15.2812C64.2272 15.0179 64.2891 14.7275 64.2793 14.4355L64.2852 13.9756L63.2275 14.0234Z" fill="#475669"/>
<path d="M55.2314 8.9502H57.2812V10.9482H55.2314V14.9072C55.2096 15.0758 55.2243 15.2474 55.2734 15.4102C55.3231 15.5728 55.4078 15.723 55.5195 15.8516C55.7317 16.0219 55.9992 16.111 56.2725 16.1006C56.3538 16.105 56.4352 16.1064 56.5166 16.1064L56.7549 16.0703C56.9184 16.0553 57.0802 16.0248 57.2383 15.9795L57.752 17.6807C57.3796 17.794 56.9992 17.8806 56.6143 17.9404C56.3182 17.9807 56.0195 18.0009 55.7207 18.001C55.3288 18.0331 54.9341 17.9885 54.5596 17.8691C54.1845 17.7496 53.8367 17.5575 53.5371 17.3047C53.0016 16.6428 52.7494 15.7998 52.834 14.9561V10.9482H51.1943V8.9502H52.8398V6.58984H55.2314V8.9502Z" fill="#475669"/>
<path d="M8.68555 6.01562C8.82146 6.0157 8.95172 6.06813 9.04785 6.16211C9.14407 6.25625 9.19824 6.38443 9.19824 6.51758V17.5195C9.18441 17.6423 9.12432 17.7554 9.03027 17.8379C8.93623 17.9203 8.81477 17.9668 8.68848 17.9668C8.56209 17.9668 8.43979 17.9204 8.3457 17.8379C8.25183 17.7554 8.19259 17.6422 8.17871 17.5195V6.51758C8.17871 6.38547 8.23132 6.25804 8.32617 6.16406C8.42108 6.07009 8.55055 6.01721 8.68555 6.01562Z" fill="#475669"/>
<path d="M70.3418 17.9287H67.9492V5.78418H70.3418V17.9287Z" fill="#475669"/>
<path d="M31.3076 13.7451V5.78418H33.7852V17.9277H31.5088L26.4746 10.04V17.9277H23.9971V5.78418H26.2852L31.3076 13.7451Z" fill="#475669"/>
<path d="M47.3828 10.4395C47.964 8.91996 50.3261 8.97461 50.4424 8.97461V10.9727C49.9424 10.9283 49.4378 10.975 48.9551 11.1113C48.5506 11.1807 48.1826 11.386 47.9131 11.6924C47.6435 11.9989 47.4883 12.3888 47.4746 12.7949V17.9277H45.083V8.97461H47.4014L47.3828 10.4395Z" fill="#475669"/>
<path d="M6.64551 4.0127C6.78035 4.01432 6.90912 4.06829 7.00391 4.16211C7.0987 4.25597 7.15221 4.38271 7.15234 4.51465V15.6348C7.14871 15.6695 7.14181 15.7039 7.13086 15.7373C7.10882 15.8044 7.07252 15.8664 7.02441 15.9189C6.97634 15.9714 6.91733 16.0132 6.85156 16.042C6.78583 16.0707 6.71452 16.0859 6.64258 16.0859C6.57047 16.0859 6.4984 16.0708 6.43262 16.042C6.36695 16.0133 6.30777 15.9714 6.25977 15.9189C6.21173 15.8665 6.17533 15.8044 6.15332 15.7373C6.14235 15.7039 6.13546 15.6694 6.13184 15.6348V4.51465C6.13197 4.38175 6.18621 4.25417 6.28223 4.16016C6.37844 4.06602 6.50942 4.0127 6.64551 4.0127Z" fill="#475669"/>
</svg>
