<svg width="67" height="40" viewBox="0 0 67 40" fill="none" xmlns="http://www.w3.org/2000/svg">
<path d="M22.1377 36.8465C22.3984 36.8465 22.6103 36.8672 22.7725 36.908C22.9345 36.9475 23.0654 36.9985 23.1641 37.0604L23.0606 37.3924C22.969 37.3431 22.8538 37.2979 22.7159 37.2557C22.5791 37.212 22.4108 37.1893 22.212 37.1893C21.9907 37.1893 21.8207 37.2184 21.7022 37.2762C21.5838 37.334 21.5245 37.4594 21.5245 37.6512C21.5245 37.744 21.5447 37.8197 21.584 37.8787C21.625 37.9366 21.7102 37.9889 21.8399 38.034L22.6104 38.2938C22.8188 38.3642 22.9706 38.4577 23.0665 38.5731C23.1638 38.6887 23.2129 38.8625 23.2129 39.0936C23.2129 39.281 23.179 39.4427 23.1114 39.578C23.0437 39.7134 22.9353 39.8181 22.7872 39.8914C22.6405 39.9633 22.4487 39.9998 22.212 39.9998C21.9851 39.9998 21.7757 39.9755 21.584 39.9276C21.3924 39.8782 21.2155 39.8067 21.0547 39.7137L21.2041 39.3875C21.3212 39.4566 21.471 39.5191 21.6514 39.574C21.8319 39.629 22.0167 39.6571 22.2041 39.6571C22.3701 39.657 22.4967 39.6343 22.584 39.5906C22.6728 39.5469 22.7348 39.4791 22.7686 39.3875C22.8024 39.2944 22.8194 39.1746 22.8194 39.0281C22.8194 38.9704 22.8088 38.9189 22.7891 38.8739C22.7708 38.8289 22.7351 38.7868 22.6817 38.7489C22.6295 38.7108 22.5515 38.6742 22.4473 38.6405L21.7081 38.3953C21.5673 38.3489 21.4526 38.2942 21.3653 38.2323C21.2782 38.1689 21.2147 38.0906 21.1739 37.9979C21.133 37.9035 21.1114 37.7872 21.1114 37.6492C21.1114 37.4533 21.1564 37.2956 21.2452 37.1785C21.3354 37.0617 21.4584 36.9767 21.6133 36.9246C21.7683 36.8725 21.9433 36.8465 22.1377 36.8465Z" fill="#475669"/>
<path d="M29.1612 38.9959C29.1612 39.1835 29.1982 39.3252 29.2715 39.4198C29.3462 39.514 29.4444 39.5778 29.5655 39.6102C29.6866 39.6411 29.8182 39.6571 29.959 39.6571C30.1026 39.657 30.2312 39.6411 30.3438 39.6102C30.4578 39.5777 30.5481 39.514 30.6143 39.4198C30.6806 39.3252 30.7139 39.1835 30.7139 38.9959V36.8934H31.1416V38.952C31.1416 39.0928 31.1231 39.2266 31.0879 39.3533C31.054 39.4789 30.9943 39.591 30.9083 39.6883C30.8223 39.7855 30.7024 39.8619 30.5489 39.9168C30.3953 39.9717 30.1984 39.9998 29.959 39.9998C29.7096 39.9998 29.5036 39.9717 29.3428 39.9168C29.1837 39.8618 29.0595 39.786 28.9708 39.6903C28.882 39.5945 28.8195 39.4836 28.7842 39.3582C28.7505 39.2314 28.7335 39.0957 28.7334 38.952V36.8934H29.1612V38.9959Z" fill="#475669"/>
<path fill-rule="evenodd" clip-rule="evenodd" d="M42.2149 36.8465C42.4616 36.8465 42.665 36.8757 42.8243 36.9334C42.9836 36.9913 43.1085 37.0722 43.1973 37.1766C43.2861 37.2795 43.3476 37.4008 43.3829 37.5389C43.4194 37.677 43.4385 37.827 43.4385 37.9891V38.8953C43.4385 39.0516 43.4194 39.1976 43.3829 39.3328C43.3475 39.4667 43.2855 39.5843 43.1954 39.6844C43.1065 39.7831 42.9817 39.8604 42.8223 39.9168C42.6629 39.9718 42.4603 39.9998 42.2149 39.9998C41.9597 39.9998 41.749 39.9729 41.584 39.9207C41.4207 39.8685 41.2928 39.7954 41.2012 39.701C41.1096 39.6051 41.0455 39.4913 41.0088 39.3602C40.9722 39.2292 40.9542 39.0838 40.9542 38.9246V37.9617C40.9542 37.7997 40.9717 37.6508 41.0069 37.5155C41.0436 37.3801 41.1077 37.2621 41.1993 37.1619C41.2909 37.0618 41.4186 36.9836 41.5821 36.9285C41.7471 36.8736 41.9583 36.8465 42.2149 36.8465ZM42.2149 37.1893C42.0358 37.1893 41.884 37.2099 41.7598 37.2508C41.6358 37.2903 41.5415 37.3607 41.4766 37.4608C41.4133 37.5608 41.381 37.702 41.3809 37.8836V38.9901C41.3809 39.1706 41.4132 39.3092 41.4766 39.4051C41.5401 39.5008 41.634 39.5677 41.7579 39.6043C41.8819 39.6395 42.0345 39.657 42.2149 39.6571C42.3965 39.6571 42.5462 39.6394 42.6631 39.6043C42.7815 39.5676 42.8694 39.5008 42.9258 39.4051C42.9837 39.3092 43.0127 39.1706 43.0127 38.9901V37.8836C43.0127 37.7019 42.9835 37.5608 42.9258 37.4608C42.868 37.3606 42.7796 37.2903 42.6612 37.2508C42.5441 37.2099 42.3953 37.1893 42.2149 37.1893Z" fill="#475669"/>
<path d="M46.3458 36.8465C46.6065 36.8465 46.8183 36.8672 46.9805 36.908C47.1425 36.9475 47.2734 36.9984 47.3721 37.0604L47.2686 37.3924C47.1771 37.3431 47.0618 37.2979 46.9239 37.2557C46.7871 37.212 46.6189 37.1893 46.42 37.1893C46.1988 37.1894 46.0286 37.2184 45.9102 37.2762C45.7919 37.334 45.7325 37.4588 45.7325 37.6502C45.7325 37.7432 45.7526 37.8196 45.792 37.8787C45.8329 37.9366 45.9181 37.9889 46.0479 38.034L46.8184 38.2938C47.0269 38.3643 47.1795 38.4575 47.2754 38.5731C47.3725 38.6887 47.4209 38.8626 47.4209 39.0936C47.4209 39.281 47.387 39.4427 47.3194 39.578C47.2517 39.7133 47.144 39.8181 46.9961 39.8914C46.8494 39.9634 46.6569 39.9998 46.42 39.9998C46.1932 39.9998 45.9836 39.9755 45.792 39.9276C45.6003 39.8782 45.4235 39.8067 45.2627 39.7137L45.4131 39.3875C45.5301 39.4566 45.679 39.5191 45.8594 39.574C46.04 39.629 46.2246 39.6571 46.4122 39.6571C46.5784 39.657 46.7057 39.6343 46.793 39.5906C46.8817 39.5469 46.9428 39.479 46.9766 39.3875C47.0104 39.2945 47.0284 39.1746 47.0284 39.0281C47.0284 38.9705 47.0178 38.9189 46.9981 38.8739C46.9797 38.8287 46.9433 38.7869 46.8897 38.7489C46.8376 38.7108 46.7595 38.6743 46.6553 38.6405L45.917 38.3953C45.7761 38.3489 45.6618 38.2943 45.5743 38.2323C45.4869 38.1688 45.4218 38.091 45.3809 37.9979C45.34 37.9034 45.3194 37.7865 45.3194 37.6483C45.3195 37.4524 45.3644 37.2955 45.4532 37.1785C45.5434 37.0616 45.6663 36.9768 45.8213 36.9246C45.9764 36.8725 46.1513 36.8466 46.3458 36.8465Z" fill="#475669"/>
<path d="M27.0059 37.242H26.1211V39.953H25.6963V37.242H24.8135V36.8934H27.0059V37.242Z" fill="#475669"/>
<path fill-rule="evenodd" clip-rule="evenodd" d="M34.3672 36.8934C34.6505 36.8934 34.8768 36.9395 35.0459 37.0311C35.2151 37.1213 35.3375 37.2441 35.4122 37.3992C35.4882 37.5542 35.5264 37.7292 35.5264 37.9237V38.9324C35.5264 39.1524 35.484 39.3397 35.3995 39.492C35.3149 39.6426 35.187 39.7569 35.0167 39.8358C34.8461 39.9133 34.6305 39.9529 34.3711 39.953H33.1524V36.8934H34.3672ZM33.5801 39.6356H34.3292C34.4756 39.6355 34.6072 39.6197 34.7227 39.5887C34.8394 39.5563 34.9315 39.4925 34.9991 39.3983C35.0667 39.3038 35.1016 39.1629 35.1016 38.9754V37.8983C35.1016 37.7093 35.0662 37.5658 34.9971 37.4686C34.9294 37.3699 34.8368 37.3026 34.7198 37.2674C34.6044 37.2309 34.474 37.2128 34.3292 37.2127H33.5801V39.6356Z" fill="#475669"/>
<path d="M39.0313 37.2078H38.4502V39.6356H39.0313V39.953H37.4405V39.6356H38.0245V37.2078H37.4405V36.8934H39.0313V37.2078Z" fill="#475669"/>
<path fill-rule="evenodd" clip-rule="evenodd" d="M57.0303 18.8602C57.2691 18.8622 57.3779 19.0069 57.3829 19.2537C57.3869 19.4469 57.3817 19.6407 57.3858 19.8338C57.3905 20.0974 57.495 20.2143 57.7559 20.2567C57.9414 20.2875 58.0497 20.3893 58.0831 20.577C58.0953 20.643 58.0938 20.7127 58.0938 20.7801V30.7537C58.093 30.7879 58.0901 30.8219 58.085 30.8553C58.0549 31.0458 57.9277 31.1679 57.7413 31.1727C57.4971 31.1795 57.253 31.1788 57.0088 31.1727C56.8389 31.1686 56.7195 31.0667 56.6866 30.8983C56.6675 30.7986 56.6631 30.6944 56.6631 30.5926C56.6618 29.1666 56.6629 27.7393 56.6622 26.3133C56.6622 26.2344 56.6631 26.1542 56.6543 26.076C56.6353 25.9066 56.5513 25.788 56.3731 25.7586C56.2839 25.7443 56.1938 25.7272 56.1045 25.7264C55.4789 25.7237 54.8522 25.7231 54.2266 25.7244C53.8213 25.7252 53.6944 25.8505 53.6944 26.2518C53.6937 27.7181 53.6945 29.1839 53.6924 30.6502C53.6924 30.7458 53.6872 30.8455 53.6612 30.9364C53.6201 31.0814 53.51 31.1649 53.3594 31.1698C53.1096 31.1773 52.8583 31.1766 52.6084 31.1698C52.4401 31.1655 52.3187 31.0602 52.2872 30.8953C52.2708 30.8074 52.2696 30.7138 52.2696 30.6239C52.2689 28.9816 52.2696 27.3395 52.2696 25.6971L52.2706 25.699V20.8573C52.2706 20.7836 52.2684 20.7085 52.2725 20.6356C52.2862 20.3878 52.4126 20.2672 52.6631 20.2576C53.0286 20.2432 53.1434 20.1237 53.1456 19.7547C53.1469 19.5841 53.1407 19.4129 53.1495 19.243C53.1618 18.9945 53.2688 18.8622 53.5167 18.8602C54.6879 18.8506 55.8591 18.8506 57.0303 18.8602ZM54.128 20.2987C53.8192 20.3002 53.6988 20.4155 53.6973 20.7196C53.6932 21.7651 53.6932 22.8117 53.6973 23.8573C53.6987 24.1679 53.8266 24.2893 54.1377 24.2908C54.8262 24.2929 55.5154 24.2929 56.2032 24.2908C56.5429 24.2894 56.66 24.1692 56.6622 23.824V22.2879C56.6622 21.771 56.6646 21.253 56.6612 20.7362C56.6591 20.4202 56.5409 20.3001 56.2276 20.2987C55.5282 20.2952 54.8274 20.2945 54.128 20.2987Z" fill="#475669"/>
<path fill-rule="evenodd" clip-rule="evenodd" d="M12.8819 18.8582C13.0962 18.8911 13.2044 19.0064 13.212 19.2235C13.2195 19.4339 13.2117 19.6447 13.2178 19.8543C13.2255 20.0979 13.3351 20.2165 13.5733 20.2547C13.7788 20.2875 13.8867 20.3938 13.9161 20.5965C13.9205 20.6273 13.9231 20.6589 13.9239 20.6903V30.7479C13.9232 30.7791 13.9214 30.811 13.917 30.8416C13.8889 31.0464 13.7566 31.1685 13.5499 31.1727C13.3227 31.1775 13.0954 31.1768 12.8682 31.1727C12.662 31.1693 12.5421 31.0646 12.5079 30.8592C12.4935 30.7707 12.4922 30.6783 12.4922 30.5877C12.4915 29.1557 12.4927 27.7239 12.4913 26.2918C12.4913 26.2126 12.4907 26.1314 12.4805 26.0535C12.4586 25.8988 12.378 25.7897 12.2159 25.7615C12.1211 25.7452 12.0252 25.7265 11.9297 25.7264C11.3041 25.723 10.6774 25.7231 10.0518 25.7244C9.64997 25.7252 9.52422 25.8519 9.52349 26.2567C9.52278 27.7167 9.52295 29.1775 9.52153 30.6375C9.52153 30.7223 9.52203 30.8097 9.50493 30.8924C9.46869 31.0656 9.34599 31.1684 9.16802 31.1727C8.92901 31.1781 8.68958 31.1781 8.45122 31.1727C8.26554 31.1685 8.14173 31.0585 8.11235 30.8748C8.09875 30.7916 8.09966 30.7045 8.09966 30.6199V20.8524C8.09966 20.7841 8.0982 20.7148 8.10161 20.6473C8.1147 20.388 8.23837 20.2662 8.49712 20.2567C8.85287 20.2437 8.97222 20.1212 8.97563 19.7655C8.97698 19.601 8.97246 19.4358 8.97856 19.2713C8.98814 18.9866 9.10011 18.8733 9.38481 18.8514C9.41887 18.8487 9.45322 18.8485 9.48735 18.8485H12.712C12.7685 18.8485 12.826 18.8501 12.8819 18.8582ZM9.9561 20.2987C9.64728 20.3002 9.52719 20.415 9.52641 20.7205C9.5223 21.7661 9.5223 22.8127 9.52641 23.8582C9.52776 24.169 9.65565 24.2894 9.96782 24.2908C10.6506 24.2929 11.3329 24.2929 12.0157 24.2908C12.3781 24.2894 12.4899 24.174 12.4913 23.8045C12.4926 23.2987 12.4913 22.7928 12.4913 22.2869C12.4913 21.7701 12.4937 21.252 12.4903 20.7352C12.488 20.4182 12.3724 20.3008 12.0567 20.2987C11.3573 20.2952 10.6562 20.2945 9.9561 20.2987Z" fill="#475669"/>
<path fill-rule="evenodd" clip-rule="evenodd" d="M48.7823 18.8485C48.855 18.8485 48.9306 18.8547 49.002 18.869C49.1445 18.8978 49.2419 18.9851 49.2549 19.1317C49.272 19.329 49.2753 19.5284 49.2774 19.7264C49.2822 20.1016 49.3384 20.169 49.7002 20.2625C49.8558 20.3028 49.9582 20.4046 49.9678 20.575C49.9726 20.6597 49.9727 20.7456 49.9727 20.8309V30.7196C49.9724 30.7593 49.9715 30.7992 49.9688 30.8387C49.9557 31.0407 49.8353 31.1655 49.6319 31.1717C49.3992 31.1785 49.1655 31.1768 48.9327 31.1727C48.7184 31.1692 48.5825 31.0386 48.5655 30.827C48.5593 30.7534 48.5625 30.6798 48.5625 30.6063V26.2586C48.5625 25.8614 48.4314 25.7275 48.0303 25.7254C47.3823 25.7219 46.7337 25.7226 46.085 25.7254C45.7204 25.7268 45.5809 25.8691 45.5801 26.2342C45.5795 27.6775 45.5801 29.1214 45.5801 30.5653C45.5801 31.1242 45.527 31.1746 44.9639 31.1746C44.8221 31.1746 44.6799 31.1771 44.5381 31.1737C44.3155 31.1675 44.1814 31.0357 44.167 30.8123C44.1637 30.7614 44.1651 30.71 44.1651 30.659V20.7713C44.1651 20.7259 44.1647 20.681 44.1661 20.6356C44.1757 20.4014 44.3069 20.2689 44.5391 20.2567C44.9414 20.2354 45.0361 20.1367 45.0381 19.7381C45.0388 19.5738 45.0346 19.4084 45.0401 19.244C45.049 19.0044 45.1509 18.8937 45.3877 18.8582C45.4436 18.8501 45.5012 18.8485 45.5577 18.8485C46.6326 18.8485 47.7074 18.8478 48.7823 18.8485ZM46.0137 20.2987C45.7123 20.3009 45.5818 20.4356 45.5811 20.742C45.5784 21.776 45.5784 22.8105 45.5811 23.8446C45.5819 24.1508 45.7252 24.2901 46.0323 24.2908C46.7199 24.2929 47.4091 24.2929 48.0967 24.2908C48.4296 24.2893 48.5592 24.159 48.5606 23.826C48.5627 23.3146 48.5606 22.8033 48.5606 22.2918H48.5625C48.5625 21.7749 48.565 21.2579 48.5616 20.741C48.5595 20.4312 48.4342 20.3001 48.1299 20.2987C47.4251 20.2945 46.7185 20.2945 46.0137 20.2987Z" fill="#475669"/>
<path fill-rule="evenodd" clip-rule="evenodd" d="M64.9483 18.8504C65.0275 18.8504 65.1085 18.854 65.1856 18.869C65.3581 18.9032 65.4524 19.0114 65.46 19.1873C65.4675 19.3858 65.4632 19.5847 65.4659 19.784C65.47 20.0796 65.5763 20.2043 65.8672 20.2596C66.0603 20.2966 66.1744 20.4422 66.1758 20.6688C66.1785 21.2252 66.1778 21.7826 66.1778 22.3397C66.1778 22.8626 66.1785 23.3851 66.1758 23.908C66.1744 24.1641 66.0626 24.291 65.8086 24.3367C65.604 24.3737 65.4841 24.4934 65.4717 24.7049C65.4595 24.9082 65.4592 25.1149 65.4707 25.3182C65.4832 25.5419 65.5961 25.6489 65.8506 25.7117C66.0866 25.7698 66.1756 25.8732 66.1758 26.1151C66.1779 27.6723 66.1779 29.2307 66.1758 30.7879C66.1756 31.03 66.0341 31.1696 65.7969 31.1746C65.575 31.1787 65.3522 31.1781 65.1309 31.1746C64.9182 31.1711 64.7918 31.0594 64.7637 30.8494C64.7535 30.771 64.754 30.6909 64.754 30.6112V26.2635C64.7525 25.8525 64.6293 25.7278 64.211 25.7264C63.6594 25.7243 63.1074 25.7264 62.5557 25.7264C62.4418 25.7264 62.3272 25.7216 62.2139 25.7283C61.9189 25.7454 61.7823 25.8888 61.7823 26.1844C61.7809 27.6793 61.782 29.1739 61.7813 30.6688C61.7812 31.0667 61.6724 31.1759 61.2784 31.1766C61.0963 31.1766 60.9149 31.1787 60.7334 31.1746C60.5109 31.1699 60.3884 31.054 60.3692 30.8309C60.3624 30.7518 60.3643 30.6716 60.3643 30.5926V24.9998L60.3624 24.9979V19.4061C60.3624 19.321 60.362 19.2356 60.3721 19.1512C60.3892 19.0065 60.4753 18.9109 60.6172 18.8787C60.7051 18.859 60.7968 18.8504 60.8868 18.8504C62.2404 18.8484 63.5947 18.8491 64.9483 18.8504ZM62.2002 20.2987C61.9014 20.3008 61.7817 20.43 61.7803 20.7303C61.7783 21.2473 61.7803 21.7651 61.7803 22.2821L61.7813 22.2811C61.7813 22.8088 61.78 23.3373 61.7813 23.8651C61.7826 24.1484 61.9168 24.2884 62.1954 24.2899C62.9054 24.2926 63.6163 24.2926 64.3262 24.2899C64.606 24.2885 64.7482 24.1515 64.7491 23.8719C64.7525 22.8208 64.7525 21.7696 64.7491 20.7186C64.7483 20.4312 64.6195 20.3 64.3321 20.2987C63.6218 20.2945 62.9105 20.2945 62.2002 20.2987Z" fill="#475669"/>
<path fill-rule="evenodd" clip-rule="evenodd" d="M40.668 18.8504C40.7361 18.8504 40.8053 18.8512 40.8721 18.8621C41.0747 18.8956 41.1714 19.0009 41.1797 19.2069C41.1879 19.411 41.1801 19.616 41.1856 19.8201C41.1924 20.0816 41.311 20.2125 41.5704 20.2576C41.7742 20.2933 41.8938 20.4382 41.8946 20.6707C41.898 21.2901 41.8956 21.9098 41.8956 22.5291C41.8956 22.9778 41.8966 23.4281 41.8946 23.8768C41.8931 24.1719 41.7968 24.2857 41.5079 24.3397C41.3167 24.3752 41.1966 24.5093 41.1875 24.7235C41.1793 24.9161 41.1787 25.111 41.1875 25.3035C41.1986 25.5368 41.3114 25.649 41.5713 25.7117C41.7994 25.7664 41.8929 25.8701 41.8936 26.1014C41.897 27.1982 41.8964 28.2957 41.8936 29.3924C41.8935 29.6017 41.8142 29.7028 41.6036 29.7547C41.2247 29.8476 41.181 29.9983 41.1836 30.326C41.185 30.4967 41.1872 30.6677 41.1797 30.8377C41.1708 31.0396 41.0469 31.1599 40.8458 31.1737C40.7946 31.1771 40.7426 31.1756 40.6915 31.1756H36.5625C36.1863 31.1756 36.074 31.0652 36.0733 30.6883V19.4188C36.0733 19.3396 36.0722 19.258 36.0811 19.1795C36.1017 19.0084 36.1934 18.8957 36.3692 18.869C36.4477 18.8574 36.5273 18.8504 36.6065 18.8504C37.9602 18.8491 39.3143 18.8497 40.668 18.8504ZM37.9141 25.7313C37.6277 25.7356 37.5008 25.8915 37.5 26.1815V29.283C37.5001 29.6038 37.6441 29.7484 37.9688 29.7498C38.6395 29.7526 39.3117 29.7526 39.9825 29.7498C40.3264 29.7483 40.4717 29.6036 40.4717 29.2615C40.4731 28.2447 40.4731 27.2275 40.4717 26.2108C40.4717 25.8839 40.3534 25.7375 40.0293 25.7313C39.3245 25.7176 38.6182 25.7197 37.9141 25.7313ZM37.9307 20.2987C37.6173 20.3007 37.5008 20.423 37.5 20.7371C37.4987 21.771 37.4987 22.8054 37.5 23.8387C37.5001 24.1633 37.6269 24.2893 37.9542 24.2908C38.6364 24.2929 39.3198 24.2929 40.002 24.2908C40.341 24.29 40.4703 24.1581 40.4717 23.8143V20.7283C40.4688 20.4309 40.3405 20.3007 40.045 20.2987C39.3405 20.2945 38.6359 20.2945 37.9307 20.2987Z" fill="#475669"/>
<path d="M1.03716 18.8533C1.29259 18.8663 1.40544 18.9831 1.42388 19.2371C1.42928 19.3106 1.42681 19.3843 1.42681 19.4578V29.1092C1.42681 29.661 1.51827 29.7511 2.07329 29.7518H3.76274C4.317 29.7518 4.39844 29.6721 4.39849 29.1268V19.4578C4.39849 18.9321 4.48252 18.8494 5.01567 18.8494C5.15218 18.8494 5.28932 18.8456 5.42583 18.8524C5.69124 18.8661 5.80309 18.9774 5.82427 19.243C5.82968 19.3165 5.8272 19.3902 5.8272 19.4637V30.616C5.82719 30.7122 5.82404 30.8102 5.80766 30.9051C5.77812 31.0733 5.66182 31.1536 5.49809 31.1727C5.46482 31.1767 5.4295 31.1746 5.39556 31.1746H1.12895C0.855454 31.1745 0.721175 31.0414 0.714892 30.7694C0.710811 30.5763 0.716435 30.3824 0.710985 30.1893C0.704773 29.9526 0.620424 29.8511 0.394579 29.7938C0.0928672 29.7166 0.00112476 29.6055 0.00102443 29.2889C-0.00034154 25.9642 -0.000341414 22.6381 0.00102443 19.3133C0.00105339 18.9904 0.133816 18.8597 0.458056 18.8514C0.651012 18.8466 0.844879 18.8438 1.03716 18.8533Z" fill="#475669"/>
<path d="M17.1387 18.8494C17.5095 18.8542 17.6162 18.9585 17.6163 19.327V29.2684C17.6231 29.5939 17.7756 29.7489 18.1016 29.7498C19.199 29.7518 20.2981 29.7501 21.3956 29.7508C21.4753 29.7508 21.555 29.7511 21.6348 29.7518C21.8915 29.7566 22.0063 29.8677 22.0118 30.1278C22.0166 30.3488 22.0166 30.5709 22.0118 30.7928C22.0063 31.0522 21.882 31.1738 21.6172 31.1746H17.334C17.0406 31.1746 16.9198 31.0575 16.9122 30.7635C16.9074 30.5763 16.9151 30.3878 16.9083 30.2C16.9 29.9544 16.8185 29.8581 16.5811 29.7918C16.2733 29.7058 16.2041 29.6183 16.2041 29.2967V24.3182H16.2061V19.3563C16.2061 18.9609 16.3141 18.8536 16.7129 18.8494C16.8547 18.8481 16.9964 18.8481 17.1387 18.8494Z" fill="#475669"/>
<path d="M25.2901 18.8514C25.5829 18.8624 25.6984 18.9778 25.7149 19.2713C25.7189 19.3504 25.7178 19.4305 25.7178 19.5096V29.1434C25.7179 29.6567 25.8114 29.7508 26.3243 29.7508H29.668C29.98 29.7508 30.0942 29.8515 30.1114 30.158C30.1229 30.362 30.1232 30.568 30.1124 30.7713C30.0972 31.0606 29.9702 31.1739 29.6768 31.1746C28.2548 31.1753 26.8322 31.1753 25.4102 31.1746C25.1345 31.1745 25.0056 31.0441 25 30.7664C24.9959 30.5677 25.0034 30.3677 24.9932 30.1698C24.9809 29.9413 24.8979 29.8508 24.6749 29.7928C24.3728 29.7136 24.2882 29.6074 24.2881 29.285V19.3778C24.2882 18.9627 24.3981 18.8522 24.8125 18.8494C24.9714 18.8481 25.1313 18.8453 25.2901 18.8514Z" fill="#475669"/>
<path d="M33.4034 18.8524C33.6707 18.8668 33.7909 18.9924 33.8086 19.2606C33.8121 19.3172 33.8106 19.3742 33.8106 19.4315V30.7283C33.81 30.7652 33.8089 30.8027 33.8038 30.8387C33.7722 31.0549 33.6406 31.1712 33.4229 31.1746C33.2073 31.178 32.991 31.178 32.7754 31.1746C32.5372 31.1712 32.4074 31.0511 32.3848 30.8143C32.378 30.7413 32.3809 30.6663 32.3809 30.5926L32.3799 19.3729C32.38 18.9595 32.4894 18.8516 32.9083 18.8494C33.0735 18.8494 33.2395 18.8435 33.4034 18.8524Z" fill="#475669"/>
<path d="M25.7989 0.707837C25.8203 0.705416 25.8479 0.711741 25.8653 0.723462C25.8747 0.729867 25.8842 0.735612 25.8936 0.742017L26.1866 10.9656L26.9502 12.5155C26.8729 12.4594 26.7938 12.4539 26.7022 12.4656C26.4355 12.4999 26.1677 12.5303 25.9004 12.5623C25.5004 12.61 25.1 12.6576 24.7002 12.7059C24.5254 12.727 24.3506 12.7488 24.1758 12.7713C24.121 12.7783 24.0845 12.7609 24.0499 12.7147C23.7329 12.2912 23.4117 11.8705 23.0948 11.4471C23.0723 11.4167 23.0625 11.3698 23.0625 11.3309C23.0605 10.8102 23.0616 10.2891 23.0616 9.76838V1.2303C23.0616 1.10394 23.0621 1.1086 23.1905 1.09065C23.3672 1.06596 23.5427 1.03333 23.7188 1.00471C23.9022 0.974957 24.0859 0.944327 24.2696 0.916821C24.5662 0.872471 24.863 0.829872 25.1602 0.788892C25.3728 0.759708 25.586 0.733092 25.7989 0.707837Z" fill="#475669"/>
<path fill-rule="evenodd" clip-rule="evenodd" d="M33.5948 0.0340089C33.6495 -0.00977937 33.6942 -0.012867 33.752 0.0340089C33.9485 0.193065 34.1493 0.347066 34.3487 0.502759C34.4291 0.565519 34.4344 0.565708 34.5137 0.505689C34.706 0.359728 34.8986 0.212893 35.0909 0.0672121C35.1823 -0.00211698 35.1966 -0.00162254 35.2872 0.0711183C35.4734 0.220448 35.6597 0.370446 35.8458 0.520337C35.9476 0.602432 35.947 0.601939 36.0499 0.526196C36.2401 0.385885 36.4321 0.247571 36.6211 0.105298C36.6807 0.0604478 36.7227 0.0611152 36.7813 0.111157C36.9767 0.279008 37.1781 0.440399 37.377 0.604321C37.4558 0.669421 37.4633 0.670886 37.5489 0.611157C37.7372 0.479831 37.9246 0.347537 38.1124 0.21565C38.2097 0.14693 38.2118 0.145336 38.2999 0.219556C38.4934 0.382358 38.6864 0.54712 38.879 0.710767C38.9656 0.784418 38.9747 0.783368 39.0684 0.718579C39.2591 0.586546 39.4518 0.458037 39.6407 0.324048C39.7029 0.279979 39.7488 0.285388 39.8038 0.33479C39.999 0.509918 40.1977 0.681155 40.3946 0.854321C40.4738 0.924095 40.4825 0.925326 40.5723 0.867017H40.5704C40.7202 0.76962 40.8706 0.67173 41.0206 0.574048V10.951L39.8301 12.4442C39.7472 12.5066 39.6645 12.5693 39.5821 12.6326C39.5334 12.67 39.5014 12.6538 39.4659 12.617C39.3013 12.4477 39.137 12.2787 38.9708 12.1112C38.8607 12 38.8817 12.0141 38.7725 12.0975C38.6127 12.2193 38.4557 12.3447 38.2999 12.4715C38.2477 12.5139 38.2111 12.5149 38.1612 12.4647C37.9901 12.2923 37.8129 12.1254 37.6407 11.9539C37.5945 11.9085 37.5597 11.9037 37.5079 11.9471C37.3376 12.0897 37.1621 12.2269 36.9913 12.369C36.9426 12.4092 36.9102 12.4065 36.8653 12.3621C36.6922 12.1915 36.5146 12.0247 36.3409 11.8543C36.2946 11.8089 36.2596 11.8062 36.209 11.8504C36.0369 12.0014 35.8595 12.1467 35.6875 12.2977C35.6372 12.342 35.6048 12.3317 35.5616 12.2908C35.3939 12.1315 35.2243 11.9737 35.0547 11.8162C34.9846 11.7509 34.9668 11.7497 34.8926 11.8143C34.7253 11.9602 34.5578 12.1064 34.3936 12.2557C34.3423 12.3025 34.3079 12.3017 34.2569 12.2537C34.0954 12.1014 33.9293 11.9542 33.7647 11.8055C33.682 11.731 33.6772 11.7308 33.5967 11.8026C33.426 11.9551 33.2543 12.1075 33.085 12.2615C33.042 12.3006 33.0098 12.304 32.9639 12.2625C32.7994 12.1134 32.631 11.9685 32.4639 11.8221C32.3757 11.7446 32.3709 11.7444 32.2833 11.826C32.1156 11.982 31.9466 12.1375 31.7813 12.2957C31.7376 12.3375 31.706 12.3368 31.6612 12.2977C31.4959 12.1529 31.3273 12.0116 31.1602 11.869C31.0748 11.796 31.0737 11.795 30.9952 11.8699C30.8241 12.0327 30.652 12.1949 30.4834 12.3602C30.4366 12.4063 30.4037 12.409 30.3526 12.366C30.1866 12.2258 30.0152 12.0908 29.8487 11.951C29.7948 11.9058 29.756 11.9026 29.7041 11.9559C29.5362 12.1283 29.3639 12.2968 29.1934 12.4666C29.129 12.5309 29.1185 12.5298 29.0459 12.4715C28.8787 12.3366 28.7091 12.2038 28.543 12.0672C28.4918 12.0252 28.4595 12.0285 28.4131 12.077C28.239 12.2593 28.0592 12.4365 27.8838 12.618C27.8423 12.661 27.8115 12.6644 27.7637 12.6268C27.6112 12.507 27.4495 12.3973 27.3028 12.2713C27.2957 12.2652 27.2884 12.26 27.2813 12.2547L26.5186 10.7049L26.2247 0.482251C26.3903 0.596212 26.5531 0.714428 26.7208 0.825025C26.8861 0.933917 26.8499 0.951034 27.0166 0.804517C27.1995 0.643986 27.3839 0.484871 27.5645 0.322095C27.6129 0.278637 27.6499 0.278368 27.7012 0.314282C27.897 0.451542 28.0951 0.585652 28.292 0.721509C28.3831 0.784621 28.3868 0.784548 28.4688 0.714673C28.6668 0.546063 28.8658 0.378548 29.0625 0.208814C29.1134 0.164937 29.1548 0.151706 29.2168 0.197095C29.4097 0.337955 29.6071 0.472969 29.8028 0.610181C29.8922 0.672775 29.8944 0.671845 29.9795 0.601392C30.1818 0.434401 30.3857 0.268956 30.586 0.0994386C30.6367 0.0565681 30.6731 0.0614307 30.7227 0.0984621C30.9252 0.24993 31.1305 0.397883 31.3331 0.549634C31.3803 0.585001 31.4161 0.589908 31.4649 0.55061C31.6579 0.394414 31.8541 0.242516 32.0479 0.0877199C32.1654 -0.00603162 32.1644 -0.00642355 32.2813 0.0828371C32.4712 0.227642 32.6637 0.370356 32.8516 0.517407C32.9035 0.557795 32.94 0.552046 32.9883 0.513501C33.1892 0.352443 33.3934 0.194785 33.5948 0.0340089ZM27.6231 0.489087C27.5996 0.628524 27.5859 0.765673 27.5782 0.90315C27.5397 1.58853 27.4899 2.27385 27.4678 2.95979C27.4377 3.89113 27.4202 4.82378 27.4122 5.75569C27.3987 7.31593 27.4193 8.87622 27.4932 10.4354C27.4952 10.4772 27.5131 10.5219 27.5352 10.5584C27.7112 10.8495 27.889 11.1395 28.0684 11.4285C28.1647 11.5837 28.265 11.7366 28.3633 11.8905C28.3716 11.8873 28.3804 11.8848 28.3887 11.8817C28.3821 11.8564 28.3785 11.8291 28.3682 11.8055C28.1865 11.3947 28.0056 10.9837 27.8213 10.574C27.7809 10.4845 27.7605 10.3961 27.7657 10.2967C27.7832 9.96091 27.7983 9.62504 27.8057 9.28889C27.8217 8.55579 27.8462 7.82213 27.8428 7.0887C27.8368 5.81575 27.8237 4.54203 27.7911 3.26936C27.7693 2.42462 27.7077 1.58034 27.6622 0.736157C27.6576 0.653223 27.6366 0.571462 27.6231 0.489087ZM39.7081 0.52229C39.7035 0.547333 39.6971 0.572169 39.6954 0.597485C39.6621 1.11958 39.6198 1.64222 39.5987 2.16487C39.5631 3.03553 39.5349 3.90693 39.5157 4.77815C39.5022 5.38289 39.507 5.98856 39.5079 6.59358C39.5084 7.10277 39.5094 7.61195 39.5206 8.12092C39.5369 8.86135 39.5627 9.60217 39.5831 10.3426C39.5839 10.3804 39.5741 10.4219 39.5586 10.4569C39.3517 10.9251 39.1428 11.3925 38.9346 11.8602C38.9426 11.8646 38.9511 11.8685 38.959 11.8729C38.9836 11.8424 39.0117 11.8138 39.0323 11.7811C39.2974 11.3573 39.5621 10.9332 39.8243 10.5076C39.8452 10.4737 39.8563 10.4287 39.8575 10.3885C39.885 9.52466 39.9234 8.66083 39.9336 7.7967C39.9568 5.83185 39.9445 3.86633 39.835 1.90315C39.8109 1.47404 39.781 1.04487 39.753 0.61604C39.7509 0.584164 39.74 0.552215 39.7334 0.520337C39.725 0.52088 39.7165 0.521738 39.7081 0.52229ZM29.1358 0.367017C29.1178 0.381868 29.1152 0.395835 29.1143 0.409009C29.0802 0.916965 29.0355 1.42491 29.0137 1.93342C28.9782 2.76192 28.9449 3.5907 28.9327 4.41975C28.9043 6.33794 28.9144 8.25589 29.0079 10.1727C29.0098 10.2117 29.0158 10.2535 29.0313 10.2889C29.1697 10.6088 29.3101 10.9284 29.4522 11.2469C29.529 11.4188 29.6109 11.5888 29.6905 11.7596C29.6987 11.7565 29.7076 11.7529 29.7159 11.7498C29.6947 11.6695 29.6759 11.5885 29.6524 11.5086C29.5484 11.1566 29.4428 10.8049 29.3399 10.453C29.3101 10.3508 29.2649 10.2454 29.2666 10.1424C29.2738 9.73867 29.3006 9.33521 29.3125 8.93147C29.3274 8.42259 29.3413 7.91238 29.3448 7.40315C29.3505 6.51547 29.3607 5.62748 29.3458 4.74006C29.3297 3.79441 29.2905 2.84853 29.253 1.90315C29.235 1.45053 29.1984 0.99876 29.168 0.546704C29.164 0.486636 29.1467 0.426805 29.1358 0.367017ZM38.1817 0.492993C38.1464 1.04302 38.1042 1.59279 38.0801 2.14338C38.0486 2.86683 38.017 3.59055 38.0118 4.31428C38.0029 5.55214 38.0081 6.791 38.0196 8.02913C38.0256 8.67808 38.0544 9.32674 38.0801 9.97542C38.0856 10.1136 38.0743 10.2448 38.0264 10.3739C38.0015 10.4417 37.9806 10.5116 37.96 10.5809C37.8686 10.8877 37.7768 11.1948 37.6866 11.5018C37.6674 11.5668 37.654 11.6333 37.6377 11.699C37.6448 11.7016 37.6521 11.7034 37.6592 11.7059C37.6755 11.6766 37.6931 11.6474 37.7071 11.617C37.8718 11.2576 38.038 10.8987 38.1993 10.5379C38.2711 10.3766 38.345 10.2175 38.3497 10.0321C38.3668 9.33144 38.4049 8.63111 38.4161 7.93049C38.4447 6.16704 38.4464 4.40305 38.3653 2.64045C38.3326 1.93338 38.2865 1.22684 38.2461 0.520337C38.2436 0.475564 38.2359 0.431041 38.2305 0.386548C38.2213 0.385987 38.2114 0.385156 38.2022 0.384595C38.195 0.420485 38.184 0.456822 38.1817 0.492993ZM30.6456 0.261548C30.6218 0.393427 30.6074 0.52365 30.5997 0.654126C30.5613 1.31404 30.5132 1.97412 30.4903 2.63459C30.4605 3.49369 30.445 4.35335 30.4356 5.21272C30.4181 6.80614 30.4451 8.39899 30.5176 9.99104C30.519 10.0233 30.5244 10.0566 30.5333 10.0877C30.6118 10.3593 30.6887 10.631 30.7715 10.9012C30.85 11.1568 30.9354 11.4111 31.0176 11.6658C31.0259 11.6639 31.0357 11.6629 31.044 11.661C31.0234 11.5182 31.0044 11.3748 30.9815 11.2323C30.9417 10.986 30.9014 10.739 30.8584 10.493C30.8152 10.2453 30.7727 10.0005 30.7852 9.74397C30.8205 9.02332 30.8396 8.30148 30.8545 7.57991C30.886 6.04735 30.8739 4.514 30.8155 2.98225C30.7839 2.15637 30.7305 1.33102 30.6846 0.505689C30.68 0.424007 30.6588 0.342669 30.6456 0.261548ZM36.6866 0.296704C36.6822 0.317166 36.6754 0.337485 36.6739 0.358228C36.6498 0.682122 36.6177 1.00573 36.6045 1.32991C36.5632 2.34293 36.5116 3.35636 36.4961 4.36995C36.479 5.503 36.4927 6.63633 36.503 7.76936C36.5082 8.33676 36.536 8.90411 36.5538 9.47151C36.5595 9.64886 36.5796 9.8278 36.5665 10.0037C36.5524 10.1914 36.5057 10.3767 36.4747 10.5633C36.4205 10.8906 36.3672 11.2184 36.3145 11.5457C36.311 11.5668 36.3145 11.5889 36.3145 11.6102C36.3591 11.5374 36.3891 11.4624 36.4131 11.3856C36.5166 11.0555 36.6211 10.7249 36.7198 10.3934C36.7635 10.246 36.8211 10.0963 36.8272 9.94612C36.8633 9.05212 36.8988 8.15709 36.9112 7.26252C36.9372 5.36282 36.9169 3.46298 36.8106 1.56526C36.7885 1.16873 36.7583 0.772743 36.7305 0.376782C36.7285 0.349554 36.7176 0.322674 36.711 0.295728C36.703 0.296008 36.6946 0.296704 36.6866 0.296704ZM35.1719 0.23811C35.1679 0.262801 35.1609 0.287358 35.1592 0.312329C35.1248 0.834352 35.0828 1.35615 35.0596 1.87874C35.0273 2.6001 34.9974 3.32213 34.9874 4.04377C34.9733 5.04347 34.973 6.04379 34.9776 7.04377C34.9804 7.66506 34.9836 8.28743 35.0225 8.90706C35.0721 9.69801 35.0288 10.4858 34.9893 11.2742C34.9839 11.3791 34.9883 11.4847 34.9883 11.5897C35.029 11.4642 35.0591 11.3374 35.084 11.2098C35.1273 10.9872 35.1694 10.764 35.2081 10.5408C35.2464 10.32 35.3013 10.099 35.3116 9.87678C35.3485 9.07194 35.3819 8.26654 35.3946 7.46077C35.4203 5.82069 35.4163 4.1801 35.3438 2.54084C35.3177 1.94821 35.2848 1.35586 35.253 0.763501C35.245 0.611972 35.2299 0.46065 35.2159 0.3094C35.2136 0.284137 35.2022 0.258905 35.1954 0.234204C35.1877 0.235309 35.1795 0.237005 35.1719 0.23811ZM32.1612 0.240064C32.1418 0.260041 32.1369 0.277247 32.1358 0.294751C32.1019 0.798037 32.0584 1.30165 32.0372 1.80549C32.0017 2.65492 31.9672 3.50461 31.9551 4.35432C31.9299 6.14592 31.937 7.93816 32.0264 9.72834C32.0378 9.95557 32.0747 10.1828 32.1114 10.408C32.1606 10.7123 32.2209 11.0153 32.2774 11.3182C32.292 11.3965 32.3113 11.4746 32.3282 11.5526C32.3355 11.552 32.3433 11.5519 32.3506 11.5516C32.3544 11.5265 32.3622 11.5012 32.3614 11.4764C32.3549 11.2546 32.3484 11.0321 32.3389 10.8104C32.3249 10.4793 32.2971 10.1483 32.2959 9.81721C32.2947 9.50003 32.3247 9.18246 32.3331 8.86506C32.3505 8.20181 32.3702 7.53807 32.375 6.87483C32.3814 6.04582 32.3849 5.21654 32.3682 4.38752C32.3493 3.45137 32.311 2.5155 32.2725 1.57991C32.2559 1.17162 32.219 0.763723 32.1895 0.356275C32.1867 0.317067 32.171 0.278708 32.1612 0.240064ZM33.6465 0.211743C33.3892 3.98171 33.3935 7.75217 33.6631 11.5233C33.689 11.4728 33.7046 11.4212 33.7081 11.369C33.7428 10.8399 33.7853 10.3107 33.8057 9.78108C33.8415 8.8521 33.8761 7.92258 33.8887 6.99299C33.9131 5.18714 33.8877 3.38184 33.7891 1.57795C33.7665 1.16056 33.7357 0.743112 33.7071 0.326001C33.7042 0.286248 33.691 0.247311 33.6827 0.207837L33.6465 0.211743Z" fill="#475669"/>
<path d="M41.6963 0.602368C41.9301 0.633515 42.1647 0.661479 42.3985 0.693189C42.6201 0.723476 42.8415 0.755521 43.0625 0.788892C43.317 0.827062 43.571 0.867204 43.8252 0.907056C43.978 0.930914 44.1312 0.95644 44.2842 0.980298C44.3328 0.987927 44.3522 1.01469 44.3516 1.06233C44.3502 1.1904 44.3506 1.31875 44.3506 1.44709C44.3506 4.65031 44.3505 7.85422 44.3545 11.0574C44.3545 11.2135 44.3157 11.3373 44.2188 11.4608C43.9357 11.8211 43.6615 12.1886 43.3887 12.5565C43.3314 12.6339 43.2716 12.6645 43.1739 12.6502C42.9315 12.6149 42.687 12.586 42.4434 12.5565C42.2021 12.5276 41.9601 12.5024 41.7188 12.4735C41.4825 12.4452 41.2462 12.414 41.0098 12.3846C40.8798 12.3683 40.7499 12.3488 40.6192 12.3387C40.5811 12.3359 40.5329 12.3511 40.502 12.3739C40.4064 12.4434 40.3113 12.5145 40.2168 12.5858L41.4073 11.0926V0.71565C41.4241 0.704746 41.4412 0.694327 41.4581 0.683423C41.4721 0.674162 41.4915 0.667034 41.4981 0.654126C41.5448 0.561497 41.6218 0.592263 41.6963 0.602368Z" fill="#475669"/>
<path fill-rule="evenodd" clip-rule="evenodd" d="M22.6612 7.55159C22.6612 8.82034 22.6625 10.0895 22.6602 11.3582C22.66 11.4384 22.6858 11.5008 22.7325 11.5633C22.9626 11.8726 23.1899 12.1833 23.418 12.494C23.4338 12.5153 23.4433 12.5416 23.462 12.577C23.4172 12.5814 23.3855 12.5871 23.3536 12.5877C22.9383 12.595 22.5227 12.6004 22.1075 12.6082C21.7949 12.6141 21.4823 12.6212 21.17 12.6307C21.1068 12.6327 21.064 12.6138 21.0254 12.5633C20.6926 12.1277 20.3561 11.6941 20.0245 11.2576C19.9988 11.224 19.9889 11.1717 19.9883 11.1278C19.9854 10.8264 19.9867 10.5248 19.9864 10.2235C19.9861 10.1283 19.9822 10.1236 19.8868 10.1278C19.8418 10.1297 19.8225 10.1151 19.8194 10.0692C19.8062 9.8765 19.8044 9.87795 19.6221 9.81624C19.3716 9.73109 19.2317 9.54972 19.1788 9.30256C19.1593 9.21206 19.1553 9.11736 19.1553 9.02424C19.1538 7.95178 19.1538 6.879 19.1543 5.80647C19.1546 5.69456 19.1552 5.58189 19.1641 5.47053C19.1958 5.07192 19.4065 4.77549 19.7325 4.55159C19.794 4.50903 19.8281 4.46576 19.8204 4.39241C19.8179 4.36956 19.8227 4.34565 19.8194 4.32307C19.8076 4.24573 19.8409 4.20241 19.92 4.19417C19.9723 4.18884 19.9863 4.15559 19.9864 4.11116C19.9861 3.94062 19.9854 3.76997 19.9854 3.59944C19.9858 3.25377 19.9872 2.908 19.9864 2.56233C19.9864 2.50955 20.019 2.48695 20.0606 2.47151C20.5007 2.3076 20.94 2.14098 21.3819 1.98127C21.7505 1.84823 22.1219 1.72255 22.4922 1.59456C22.5409 1.57775 22.5919 1.56716 22.6612 1.54866V7.55159ZM20.6573 10.118C20.4988 10.1376 20.3892 10.2352 20.3282 10.3778C20.2482 10.5641 20.34 10.7933 20.5635 10.7801C20.7629 10.7819 20.971 10.5857 20.9659 10.3905C20.9604 10.1882 20.8297 10.0968 20.6573 10.118ZM22.1631 9.85139C21.9304 9.80115 21.6861 10 21.6875 10.2352C21.6884 10.3746 21.7637 10.4749 21.8936 10.5008C22.0325 10.5286 22.1485 10.4807 22.2422 10.3826C22.3443 10.2757 22.3811 10.1472 22.335 10.0067C22.3089 9.92821 22.2484 9.86995 22.1631 9.85139ZM21.3633 9.50471C21.1677 9.52155 20.9973 9.70321 20.9961 9.89729C20.995 10.0864 21.1387 10.2052 21.3301 10.1727C21.4757 10.148 21.6287 9.99538 21.6534 9.85139C21.6886 9.64483 21.5576 9.48846 21.3633 9.50471ZM20.6963 9.11116C20.4854 9.10901 20.2756 9.33652 20.3008 9.54084C20.3221 9.71371 20.4791 9.82527 20.6338 9.77815C20.7575 9.74028 20.851 9.66614 20.9161 9.55647C21.0399 9.34677 20.9251 9.11364 20.6963 9.11116ZM19.7129 4.87483C19.5302 5.04715 19.4252 5.25536 19.4229 5.50764V8.79377C19.4229 8.88948 19.419 8.98553 19.4258 9.08088C19.439 9.2588 19.502 9.41361 19.669 9.50764C19.7058 9.5283 19.7516 9.53416 19.793 9.5467C19.802 9.50774 19.8194 9.46848 19.8194 9.42952C19.8208 8.6821 19.8194 7.93447 19.8194 7.18733H19.8135C19.8135 6.67827 19.8127 6.16903 19.8135 5.65999C19.8141 5.41286 19.8181 5.16521 19.8184 4.9178C19.8183 4.8899 19.8051 4.8617 19.7979 4.83381C19.7693 4.84724 19.7347 4.85449 19.7129 4.87483ZM22.0362 8.8387C21.9076 8.8684 21.8051 8.93671 21.7383 9.04963C21.6744 9.15768 21.6623 9.27204 21.7276 9.38264C21.7794 9.47047 21.8642 9.50951 21.9727 9.50471C22.2035 9.50443 22.392 9.2695 22.3448 9.03596C22.3183 8.90612 22.1679 8.80863 22.0362 8.8387ZM21.378 8.51155C21.1784 8.50925 20.9986 8.69114 20.9971 8.89729C20.9822 9.1033 21.1785 9.20551 21.2989 9.17854C21.4672 9.14086 21.5852 9.04468 21.6436 8.88459C21.7139 8.69178 21.586 8.51431 21.378 8.51155ZM20.6797 8.11799C20.4875 8.09986 20.2645 8.3429 20.3038 8.55549C20.3281 8.68834 20.3957 8.75371 20.5323 8.7762C20.7016 8.80394 20.8831 8.67859 20.9454 8.49006C21.0138 8.28292 20.8982 8.1214 20.6797 8.11799ZM22.0655 7.8426C21.9023 7.84147 21.7251 7.9863 21.6924 8.1551C21.6443 8.40447 21.8499 8.55357 22.0479 8.49299C22.1852 8.45084 22.2791 8.36412 22.3301 8.23713C22.4135 8.03028 22.2859 7.84431 22.0655 7.8426ZM21.4541 7.51643C21.2647 7.46484 20.9819 7.67118 20.9971 7.90315C20.9975 8.08439 21.1254 8.19403 21.3077 8.16877C21.4667 8.14686 21.6194 8.00674 21.6524 7.85237C21.6872 7.68804 21.6016 7.55678 21.4541 7.51643ZM20.6436 7.11506C20.4968 7.15168 20.3891 7.23746 20.3282 7.37483C20.2394 7.57493 20.3586 7.77452 20.5684 7.77815C20.7661 7.78148 20.9745 7.57182 20.9668 7.37678C20.9602 7.20413 20.803 7.07551 20.6436 7.11506ZM22.1592 6.85334C21.9708 6.81408 21.7939 6.91556 21.709 7.11311C21.6234 7.31234 21.7617 7.50947 21.9805 7.49983C22.2236 7.48862 22.4031 7.2537 22.3389 7.02327C22.3149 6.93608 22.2554 6.87359 22.1592 6.85334ZM21.3321 6.50862C21.1511 6.53881 20.9984 6.71343 20.9961 6.89241C20.9814 7.09428 21.1754 7.212 21.3252 7.16975C21.4831 7.12512 21.5955 7.02378 21.6465 6.86799C21.7142 6.6601 21.549 6.47243 21.3321 6.50862ZM20.7715 6.11799C20.5183 6.06673 20.2973 6.30489 20.2989 6.50862C20.306 6.72105 20.4548 6.80656 20.6006 6.78108C20.8015 6.74599 20.9255 6.6136 20.9639 6.41487C20.9886 6.28529 20.8875 6.14155 20.7715 6.11799ZM22.0616 5.83674C21.8929 5.84459 21.7059 6.01763 21.6885 6.18147C21.6662 6.39396 21.822 6.54247 22.0264 6.50374C22.202 6.47018 22.3495 6.29375 22.3506 6.11702C22.3516 5.94218 22.2347 5.82872 22.0616 5.83674ZM21.3106 5.51448C21.1575 5.55271 21.0572 5.64971 21.0088 5.79377C20.9414 5.99476 21.0859 6.18853 21.2862 6.17366C21.4842 6.1587 21.6574 5.97528 21.6583 5.77913C21.6591 5.57961 21.5092 5.46508 21.3106 5.51448ZM20.6426 5.1092C20.4956 5.14542 20.3866 5.23116 20.3282 5.36897C20.2502 5.55362 20.3345 5.78335 20.5665 5.77815C20.768 5.78151 20.9859 5.55106 20.9668 5.35432C20.9505 5.18815 20.7977 5.07131 20.6426 5.1092ZM22.167 4.84651C21.9943 4.79014 21.7644 4.92982 21.7012 5.12483C21.6473 5.29128 21.7348 5.51135 21.9649 5.49788C22.2139 5.49778 22.4129 5.23621 22.336 5.00471C22.3099 4.9264 22.2507 4.87402 22.167 4.84651ZM21.3155 4.50667C21.1401 4.54343 20.9987 4.71292 20.9961 4.88948C20.9935 5.07301 21.1151 5.18966 21.293 5.17366C21.4598 5.15905 21.6338 4.99507 21.6553 4.83284C21.6836 4.62091 21.5195 4.46411 21.3155 4.50667ZM20.7022 4.1092C20.5137 4.09068 20.296 4.30296 20.2989 4.50178C20.3041 4.7196 20.4673 4.79824 20.6094 4.77522C20.8009 4.74405 20.9147 4.6206 20.96 4.43928C21.0018 4.27162 20.8769 4.12659 20.7022 4.1092ZM22.0274 3.83674C21.8517 3.85611 21.6884 4.04316 21.6875 4.21663C21.6806 4.44538 21.8945 4.54003 22.044 4.49299C22.1724 4.45259 22.2707 4.3738 22.3223 4.24983C22.3642 4.14878 22.3708 4.04393 22.3028 3.94905C22.2363 3.85611 22.1376 3.82471 22.0274 3.83674ZM21.3926 3.50764C21.225 3.50343 21.0357 3.6514 21.003 3.81331C20.9525 4.06228 21.1248 4.22488 21.3672 4.15022C21.5191 4.10366 21.6166 3.99442 21.6514 3.84358C21.6947 3.65568 21.5795 3.51264 21.3926 3.50764ZM20.6631 3.11116C20.5033 3.12856 20.3903 3.22873 20.3272 3.37385C20.2394 3.57693 20.3597 3.77035 20.5713 3.77131C20.7719 3.77216 20.9787 3.57299 20.9659 3.37678C20.9523 3.1759 20.8294 3.09314 20.6631 3.11116ZM22.1416 2.84358C21.9336 2.81524 21.7222 2.96937 21.6895 3.17366C21.6605 3.35415 21.7841 3.49901 21.9649 3.49592C22.2177 3.50538 22.3974 3.24692 22.3438 3.02717C22.3216 2.93674 22.2357 2.85659 22.1416 2.84358ZM21.3516 2.50178C21.1907 2.53548 21.0709 2.6242 21.0127 2.7801C20.9391 2.97785 21.0632 3.16822 21.2647 3.16877C21.49 3.16905 21.6955 2.92607 21.6534 2.70881C21.6272 2.57473 21.4862 2.47373 21.3516 2.50178Z" fill="#475669"/>
<path fill-rule="evenodd" clip-rule="evenodd" d="M44.834 1.45393C45.0512 1.53028 45.2711 1.60122 45.4883 1.67756C45.8065 1.78926 46.1238 1.90304 46.4405 2.01838C46.7347 2.12583 47.0273 2.23837 47.3223 2.34358C47.3926 2.36879 47.4172 2.40454 47.417 2.47639C47.4145 2.96705 47.4167 3.45839 47.4141 3.94905C47.4139 4.02469 47.4259 4.07639 47.5167 4.08284C47.5686 4.08685 47.598 4.11978 47.5889 4.17463C47.566 4.31269 47.6168 4.401 47.7393 4.48518C48.0001 4.66422 48.1605 4.9215 48.2256 5.22737C48.2498 5.34048 48.2478 5.46048 48.2481 5.57698L48.2471 5.576C48.2489 6.25826 48.2492 6.94062 48.2471 7.62288C48.2457 8.12037 48.2482 8.61786 48.2344 9.11506C48.2264 9.41403 47.9811 9.67221 47.6788 9.72834C47.6145 9.74039 47.5869 9.76995 47.5879 9.83088C47.5891 9.87252 47.5862 9.91487 47.5879 9.95686C47.5896 10.0006 47.5706 10.0127 47.5274 10.0096C47.4159 10.0015 47.4151 10.0036 47.4151 10.1121C47.4148 10.4131 47.418 10.7143 47.4131 11.0155C47.4126 11.0667 47.3903 11.1257 47.3594 11.1678C47.1868 11.4025 47.0091 11.6344 46.8311 11.8651C46.6789 12.0626 46.523 12.2573 46.3711 12.4549C46.3388 12.4967 46.303 12.5129 46.25 12.5115C45.8827 12.5028 45.5149 12.4964 45.1475 12.4891V12.4686C44.7801 12.4686 44.4124 12.469 44.045 12.4676C44.016 12.4676 43.987 12.4541 43.9581 12.4471C43.9706 12.4184 43.979 12.3868 43.9971 12.3621C44.222 12.0552 44.4505 11.7505 44.6719 11.4412C44.7077 11.3913 44.7334 11.3221 44.7334 11.2615C44.7369 10.0749 44.7354 8.88785 44.7354 7.701C44.7354 5.64026 44.7361 3.5791 44.7364 1.51838C44.7364 1.42504 44.7449 1.42262 44.834 1.45393ZM46.8399 10.0203C46.6361 9.93696 46.4399 10.0562 46.4405 10.2625C46.4411 10.442 46.5765 10.6061 46.7657 10.6571C46.9417 10.7042 47.0964 10.5924 47.1016 10.4139C47.1064 10.2497 46.9963 10.0844 46.8399 10.0203ZM45.294 9.72737C45.1662 9.73753 45.0716 9.82233 45.0518 9.94417C45.017 10.1597 45.2086 10.385 45.4307 10.3895C45.5902 10.3925 45.6963 10.3045 45.7149 10.1541C45.7422 9.93161 45.5229 9.70942 45.294 9.72737ZM46.1114 9.4051C45.9128 9.34088 45.7471 9.45939 45.7491 9.66292C45.7509 9.8368 45.8699 9.99394 46.0401 10.0467C46.2412 10.109 46.4325 9.96045 46.4073 9.75569C46.3857 9.58021 46.2847 9.46119 46.1114 9.4051ZM46.7432 8.99299C46.5476 8.99421 46.4412 9.09999 46.4395 9.25959C46.4378 9.42422 46.5737 9.61619 46.792 9.66292C46.8985 9.68566 47.0092 9.63515 47.0606 9.5467C47.1306 9.426 47.109 9.30741 47.0411 9.19514C46.9677 9.07359 46.8583 9.00391 46.7432 8.99299ZM47.5889 4.79475V9.37776C47.5881 9.43554 47.6234 9.45386 47.6661 9.42463C47.7428 9.37254 47.8242 9.31935 47.8829 9.24983C47.9664 9.15114 47.9785 9.02359 47.9786 8.89827C47.9777 8.48483 47.9747 8.07147 47.9747 7.65803C47.9747 7.14639 47.9774 6.6343 47.9786 6.12288C47.9791 5.88283 47.9803 5.6425 47.9786 5.40217C47.9769 5.14646 47.8797 4.92959 47.6885 4.75471C47.6654 4.73349 47.6375 4.7178 47.5987 4.69124C47.5944 4.73655 47.589 4.76566 47.5889 4.79475ZM45.4151 8.7342C45.2394 8.67708 45.0718 8.78099 45.0508 8.95979C45.0265 9.16992 45.2209 9.38542 45.4366 9.38655C45.6088 9.38712 45.7183 9.28004 45.7168 9.11116C45.7154 8.94553 45.5925 8.79225 45.4151 8.7342ZM46.0293 8.39338C45.8389 8.39591 45.7336 8.50831 45.75 8.69221C45.765 8.85756 45.8604 8.96865 46.0108 9.0301C46.1927 9.10404 46.3577 9.03056 46.4034 8.86506C46.463 8.64806 46.2583 8.39026 46.0293 8.39338ZM46.7227 7.99983C46.563 8.00307 46.4575 8.08579 46.4415 8.22151C46.4211 8.39122 46.5466 8.58554 46.711 8.64045C46.8792 8.6963 47.0402 8.63796 47.087 8.49788C47.1733 8.23857 46.917 7.97741 46.7227 7.99983ZM45.3458 7.72444C45.1493 7.72415 45.0221 7.86236 45.0528 8.04377C45.0846 8.22906 45.2433 8.37294 45.4336 8.38948C45.5238 8.39733 45.6418 8.33263 45.6827 8.25276C45.7938 8.03482 45.5963 7.7248 45.3458 7.72444ZM46.1387 7.41487C45.9341 7.33432 45.7477 7.45288 45.7491 7.65803C45.7506 7.83026 45.8718 7.98971 46.0401 8.04084C46.2599 8.10734 46.4479 7.94796 46.4043 7.72932C46.3743 7.57908 46.2831 7.47188 46.1387 7.41487ZM46.8233 7.01643C46.6027 6.93991 46.4275 7.06863 46.4415 7.2967C46.4526 7.47688 46.6397 7.65466 46.8243 7.65999C46.9866 7.66474 47.1005 7.55727 47.1016 7.39729C47.1022 7.23585 46.982 7.07173 46.8233 7.01643ZM45.46 6.75178C45.2869 6.67047 45.0806 6.76416 45.0528 6.93928C45.0183 7.1578 45.2054 7.39143 45.4356 7.38459C45.6302 7.38431 45.7561 7.22005 45.7051 7.03596C45.6684 6.9032 45.585 6.81045 45.46 6.75178ZM46.125 6.40608C45.9617 6.34315 45.7343 6.43187 45.7491 6.66096C45.7511 6.83352 45.8512 6.97052 46.0196 7.03596C46.1336 7.08031 46.2381 7.06238 46.3252 6.98323C46.4115 6.90494 46.4288 6.80259 46.3965 6.69319C46.3552 6.5534 46.2632 6.45942 46.125 6.40608ZM46.8165 6.00862C46.6105 5.9495 46.4439 6.05225 46.4405 6.25569C46.4404 6.43037 46.5597 6.58096 46.751 6.64827C46.9228 6.70831 47.0901 6.59939 47.1006 6.42073C47.1108 6.24373 46.9909 6.0591 46.8165 6.00862ZM45.3135 5.71858C45.18 5.72279 45.0778 5.80738 45.0528 5.93538C45.0117 6.1467 45.2127 6.38569 45.4336 6.3885C45.5653 6.39008 45.6598 6.32812 45.6973 6.21565C45.774 5.98452 45.5629 5.71093 45.3135 5.71858ZM46.1397 5.40901C45.9308 5.32936 45.7347 5.45231 45.7491 5.65803C45.7507 5.82069 45.8575 5.97245 46.0127 6.03303C46.2289 6.11707 46.4398 5.96052 46.4063 5.73811C46.3824 5.58029 46.2906 5.4665 46.1397 5.40901ZM46.8067 5.00471C46.6146 4.93764 46.4374 5.06059 46.4395 5.25959C46.4416 5.44273 46.5988 5.62428 46.7833 5.65608C46.963 5.68695 47.1006 5.57406 47.1006 5.39534C47.101 5.22243 46.9838 5.06646 46.8067 5.00471ZM45.3858 4.72346C45.2323 4.68634 45.0733 4.78711 45.0518 4.93831C45.0192 5.17042 45.2343 5.39319 45.4346 5.37971C45.6524 5.39513 45.7494 5.19526 45.7071 5.03792C45.6624 4.87287 45.5575 4.76529 45.3858 4.72346ZM46.1309 4.40315C45.9399 4.32842 45.7479 4.45732 45.7491 4.65803C45.7505 4.82701 45.8527 4.96567 46.0235 5.03108C46.2388 5.11335 46.4339 4.97272 46.4083 4.74788C46.3891 4.5803 46.2902 4.46546 46.1309 4.40315ZM46.794 3.99202C46.5414 3.99487 46.4343 4.10251 46.4405 4.27913C46.4465 4.4509 46.5961 4.64342 46.8213 4.65999C46.9167 4.667 47.0053 4.63305 47.0586 4.54475C47.1326 4.42209 47.111 4.29948 47.0411 4.18635C46.9706 4.07186 46.8696 3.99371 46.794 3.99202ZM45.377 3.71858C45.2186 3.69027 45.0676 3.80366 45.0499 3.951C45.0249 4.16031 45.2249 4.38123 45.4415 4.38459C45.5624 4.3864 45.6544 4.31855 45.6983 4.21077C45.7665 4.04207 45.639 3.76545 45.377 3.71858ZM46.0245 3.38948C45.8507 3.38808 45.747 3.48858 45.7491 3.65706C45.7513 3.81667 45.8637 3.97373 46.0167 4.02913C46.1732 4.08583 46.3157 4.03966 46.379 3.91194C46.4877 3.69258 46.2833 3.39179 46.0245 3.38948ZM46.8282 3.01448C46.6233 2.93605 46.4413 3.05269 46.4405 3.25276C46.4398 3.42272 46.562 3.58689 46.7276 3.6385C46.9498 3.70782 47.1279 3.56744 47.0967 3.34163C47.0746 3.18345 46.9771 3.07142 46.8282 3.01448ZM45.4239 2.7342C45.3214 2.70649 45.2208 2.70993 45.1358 2.78694C45.0489 2.86581 45.0328 2.96432 45.0606 3.07014C45.1048 3.23781 45.2086 3.34578 45.3897 3.37776C45.5714 3.40976 45.7149 3.29861 45.7168 3.11897C45.7184 2.9543 45.5874 2.77824 45.4239 2.7342ZM46.1124 2.40022C45.9157 2.33623 45.7477 2.45496 45.7491 2.65706C45.7506 2.82732 45.8636 2.98854 46.0323 3.03792C46.2677 3.10648 46.4339 2.93801 46.4083 2.75178C46.3842 2.57758 46.2859 2.45669 46.1124 2.40022Z" fill="#475669"/>
</svg>
